<svg width="342" height="48" viewBox="0 0 342 48" fill="none" xmlns="http://www.w3.org/2000/svg">
<path d="M9.41158 0.233646C7.86171 0.551137 6.42219 1.18132 5.15852 2.05719L5.44335 2.46813C4.22385 3.31338 3.17456 4.3982 2.3604 5.65712L1.94055 5.3856C1.11171 6.66722 0.516836 8.12118 0.21826 9.68369L0.709374 9.77754C0.572044 10.4962 0.5 11.2392 0.5 12V15H0V21H0.5V27H0V33H0.5V36C0.5 36.7608 0.572044 37.5038 0.709374 38.2225L0.21826 38.3163C0.516835 39.8788 1.1117 41.3328 1.94055 42.6144L2.3604 42.3429C3.17456 43.6018 4.22385 44.6866 5.44335 45.5319L5.15852 45.9428C6.42219 46.8187 7.86171 47.4489 9.41158 47.7664L9.51192 47.2765C10.2272 47.4231 10.9675 47.5 11.7257 47.5H14.6752V48H20.5743V47.5H26.4733V48H32.3724V47.5H38.2714V48H44.1705V47.5H50.0695V48H55.9686V47.5H61.8676V48H67.7667V47.5H73.6657V48H79.5648V47.5H85.4638V48H91.3629V47.5H97.2619V48H103.161V47.5H109.06V48H114.959V47.5H120.858V48H126.757V47.5H132.656V48H138.555V47.5H144.454V48H150.353V47.5H156.252V48H162.151V47.5H168.05V48H173.95V47.5H179.849V48H185.748V47.5H191.647V48H197.546V47.5H203.445V48H209.344V47.5H215.243V48H221.142V47.5H227.041V48H232.94V47.5H238.839V48H244.738V47.5H250.637V48H256.536V47.5H262.435V48H268.334V47.5H274.233V48H280.132V47.5H286.031V48H291.93V47.5H297.83V48H303.729V47.5H309.628V48H315.527V47.5H321.426V48H327.325V47.5H330.274C331.033 47.5 331.773 47.4231 332.488 47.2765L332.588 47.7664C334.138 47.4489 335.578 46.8187 336.841 45.9428L336.557 45.5319C337.776 44.6866 338.825 43.6018 339.64 42.3429L340.059 42.6144C340.888 41.3328 341.483 39.8788 341.782 38.3163L341.291 38.2225C341.428 37.5038 341.5 36.7608 341.5 36V33H342V27H341.5V21H342V15H341.5V12C341.5 11.2392 341.428 10.4962 341.291 9.77754L341.782 9.6837C341.483 8.12118 340.888 6.66723 340.059 5.3856L339.64 5.65712C338.825 4.3982 337.776 3.31338 336.557 2.46813L336.841 2.05719C335.578 1.18132 334.138 0.551134 332.588 0.233644L332.488 0.723475C331.773 0.576943 331.033 0.5 330.274 0.5H327.325V0H321.426V0.5H315.527V0H309.628V0.5H303.729V0H297.83V0.5H291.93V0H286.031V0.5H280.132V0H274.233V0.5H268.334V0H262.435V0.5H256.536V0H250.637V0.5H244.738V0H238.839V0.5H232.94V0H227.041V0.5H221.142V0H215.243V0.5H209.344V0H203.445V0.5H197.546V0H191.647V0.5H185.748V0H179.849V0.5H173.95V0H168.05V0.5H162.151V0H156.252V0.5H150.353V0H144.454V0.5H138.555V0H132.656V0.5H126.757V0H120.858V0.5H114.959V0H109.06V0.5H103.161V0H97.2619V0.5H91.3629V0H85.4638V0.5H79.5648V0H73.6657V0.5H67.7667V0H61.8676V0.5H55.9686V0H50.0695V0.5H44.1705V0H38.2714V0.5H32.3724V0H26.4733V0.5H20.5743V0H14.6752V0.5H11.7257C10.9675 0.5 10.2272 0.576943 9.51192 0.723475L9.41158 0.233646Z" stroke="#EBEBEB" stroke-dasharray="6 6"/>
<path fill-rule="evenodd" clip-rule="evenodd" d="M75.436 13C79.063 13 81.5 15.546 81.5 19.335V28.165C81.5 31.954 79.063 34.5 75.436 34.5H66.064C62.437 34.5 60 31.954 60 28.165V19.335C60 15.546 62.437 13 66.064 13H75.436ZM75.436 14.5H66.064C63.292 14.5 61.5 16.397 61.5 19.335V28.165C61.5 31.103 63.292 33 66.064 33H75.436C78.209 33 80 31.103 80 28.165V19.335C80 16.397 78.209 14.5 75.436 14.5ZM70.75 19.3273C71.164 19.3273 71.5 19.6633 71.5 20.0773V22.99L74.4165 22.9902C74.8305 22.9902 75.1665 23.3262 75.1665 23.7402C75.1665 24.1542 74.8305 24.4902 74.4165 24.4902L71.5 24.49V27.4043C71.5 27.8183 71.164 28.1543 70.75 28.1543C70.336 28.1543 70 27.8183 70 27.4043V24.49L67.0835 24.4902C66.6685 24.4902 66.3335 24.1542 66.3335 23.7402C66.3335 23.3262 66.6685 22.9902 67.0835 22.9902L70 22.99V20.0773C70 19.6633 70.336 19.3273 70.75 19.3273Z" fill="#949499"/>
<path d="M92.742 28.091C92.5253 28.091 92.3563 28.0303 92.235 27.909C92.1223 27.7877 92.066 27.6187 92.066 27.402V19.433C92.066 19.2077 92.1223 19.0387 92.235 18.926C92.3563 18.8047 92.5253 18.744 92.742 18.744C92.9587 18.744 93.1233 18.8047 93.236 18.926C93.3573 19.0387 93.418 19.2077 93.418 19.433V22.787H98.553V19.433C98.553 19.2077 98.6093 19.0387 98.722 18.926C98.8433 18.8047 99.0123 18.744 99.229 18.744C99.4457 18.744 99.6103 18.8047 99.723 18.926C99.8357 19.0387 99.892 19.2077 99.892 19.433V27.402C99.892 27.6187 99.8357 27.7877 99.723 27.909C99.6103 28.0303 99.4457 28.091 99.229 28.091C99.0123 28.091 98.8433 28.0303 98.722 27.909C98.6093 27.7877 98.553 27.6187 98.553 27.402V23.918H93.418V27.402C93.418 27.6187 93.3617 27.7877 93.249 27.909C93.1363 28.0303 92.9673 28.091 92.742 28.091ZM102.539 28.078C102.331 28.078 102.17 28.0173 102.058 27.896C101.945 27.766 101.889 27.5883 101.889 27.363V22.293C101.889 22.0677 101.945 21.8943 102.058 21.773C102.17 21.6517 102.331 21.591 102.539 21.591C102.747 21.591 102.907 21.6517 103.02 21.773C103.141 21.8943 103.202 22.0677 103.202 22.293V27.363C103.202 27.5883 103.145 27.766 103.033 27.896C102.92 28.0173 102.755 28.078 102.539 28.078ZM102.045 20.746L100.745 18.809C100.667 18.6877 100.636 18.5707 100.654 18.458C100.671 18.3453 100.723 18.25 100.81 18.172C100.896 18.094 100.996 18.042 101.109 18.016C101.221 17.9813 101.334 17.9857 101.447 18.029C101.559 18.0723 101.65 18.1633 101.72 18.302L102.76 20.343C102.812 20.4557 102.82 20.5597 102.786 20.655C102.751 20.7503 102.686 20.824 102.591 20.876C102.495 20.928 102.396 20.9453 102.292 20.928C102.196 20.9107 102.114 20.85 102.045 20.746ZM105.7 28.091C105.492 28.091 105.332 28.0347 105.219 27.922C105.106 27.8007 105.05 27.636 105.05 27.428V22.228C105.05 22.0113 105.106 21.8467 105.219 21.734C105.332 21.6213 105.488 21.565 105.687 21.565C105.895 21.565 106.051 21.6213 106.155 21.734C106.268 21.8467 106.324 22.0113 106.324 22.228V23.242L106.181 23.008C106.372 22.5227 106.671 22.1587 107.078 21.916C107.485 21.6647 107.953 21.539 108.482 21.539C108.985 21.539 109.401 21.6343 109.73 21.825C110.068 22.007 110.319 22.2887 110.484 22.67C110.649 23.0427 110.731 23.515 110.731 24.087V27.428C110.731 27.636 110.675 27.8007 110.562 27.922C110.449 28.0347 110.289 28.091 110.081 28.091C109.864 28.091 109.7 28.0347 109.587 27.922C109.474 27.8007 109.418 27.636 109.418 27.428V24.165C109.418 23.619 109.31 23.2203 109.093 22.969C108.885 22.7177 108.556 22.592 108.105 22.592C107.576 22.592 107.152 22.7567 106.831 23.086C106.519 23.4153 106.363 23.8573 106.363 24.412V27.428C106.363 27.87 106.142 28.091 105.7 28.091ZM113.19 28.091C112.982 28.091 112.822 28.0347 112.709 27.922C112.597 27.8007 112.54 27.636 112.54 27.428V19.407C112.54 19.1903 112.597 19.0257 112.709 18.913C112.822 18.8003 112.982 18.744 113.19 18.744C113.398 18.744 113.559 18.8003 113.671 18.913C113.793 19.0257 113.853 19.1903 113.853 19.407V23.008H113.671C113.862 22.5227 114.161 22.1587 114.568 21.916C114.976 21.6647 115.444 21.539 115.972 21.539C116.475 21.539 116.891 21.6343 117.22 21.825C117.558 22.007 117.81 22.2887 117.974 22.67C118.139 23.0427 118.221 23.515 118.221 24.087V27.428C118.221 27.636 118.165 27.8007 118.052 27.922C117.94 28.0347 117.779 28.091 117.571 28.091C117.355 28.091 117.19 28.0347 117.077 27.922C116.965 27.8007 116.908 27.636 116.908 27.428V24.165C116.908 23.619 116.8 23.2203 116.583 22.969C116.375 22.7177 116.046 22.592 115.595 22.592C115.067 22.592 114.642 22.7567 114.321 23.086C114.009 23.4153 113.853 23.8573 113.853 24.412V27.428C113.853 27.87 113.632 28.091 113.19 28.091ZM125.486 28.117C125.044 28.117 124.645 28.0303 124.29 27.857C123.943 27.6837 123.67 27.4497 123.471 27.155C123.272 26.8603 123.172 26.5267 123.172 26.154C123.172 25.686 123.289 25.3177 123.523 25.049C123.766 24.7717 124.16 24.5767 124.706 24.464C125.261 24.3427 126.006 24.282 126.942 24.282H127.553V25.088H126.955C126.331 25.088 125.837 25.1183 125.473 25.179C125.109 25.2397 124.849 25.3437 124.693 25.491C124.546 25.6297 124.472 25.8247 124.472 26.076C124.472 26.4053 124.585 26.674 124.81 26.882C125.035 27.0813 125.347 27.181 125.746 27.181C126.067 27.181 126.348 27.1073 126.591 26.96C126.834 26.804 127.024 26.596 127.163 26.336C127.31 26.076 127.384 25.777 127.384 25.439V23.944C127.384 23.45 127.28 23.0947 127.072 22.878C126.864 22.6613 126.522 22.553 126.045 22.553C125.768 22.553 125.477 22.5877 125.174 22.657C124.879 22.7263 124.572 22.8433 124.251 23.008C124.104 23.0773 123.978 23.099 123.874 23.073C123.77 23.047 123.688 22.9907 123.627 22.904C123.566 22.8087 123.532 22.709 123.523 22.605C123.523 22.4923 123.549 22.384 123.601 22.28C123.662 22.176 123.761 22.098 123.9 22.046C124.281 21.864 124.658 21.734 125.031 21.656C125.404 21.578 125.755 21.539 126.084 21.539C126.665 21.539 127.141 21.63 127.514 21.812C127.895 21.994 128.177 22.2713 128.359 22.644C128.541 23.0167 128.632 23.4977 128.632 24.087V27.428C128.632 27.636 128.58 27.8007 128.476 27.922C128.372 28.0347 128.22 28.091 128.021 28.091C127.83 28.091 127.679 28.0347 127.566 27.922C127.453 27.8007 127.397 27.636 127.397 27.428V26.583H127.514C127.445 26.9037 127.315 27.181 127.124 27.415C126.942 27.6403 126.712 27.8137 126.435 27.935C126.158 28.0563 125.841 28.117 125.486 28.117ZM126.11 20.915C125.98 20.915 125.876 20.889 125.798 20.837C125.729 20.7763 125.694 20.694 125.694 20.59C125.694 20.3907 125.733 20.226 125.811 20.096C125.889 19.9573 125.976 19.8403 126.071 19.745C126.175 19.6497 126.266 19.5587 126.344 19.472C126.422 19.3853 126.461 19.2813 126.461 19.16C126.461 19.0473 126.413 18.9607 126.318 18.9C126.231 18.8393 126.093 18.809 125.902 18.809C125.824 18.809 125.737 18.8177 125.642 18.835C125.555 18.8437 125.464 18.8653 125.369 18.9C125.239 18.9433 125.135 18.9563 125.057 18.939C124.988 18.913 124.936 18.8523 124.901 18.757C124.866 18.6443 124.866 18.549 124.901 18.471C124.936 18.393 125.018 18.3237 125.148 18.263C125.295 18.2023 125.456 18.159 125.629 18.133C125.802 18.107 125.984 18.094 126.175 18.094C126.591 18.094 126.916 18.172 127.15 18.328C127.384 18.484 127.501 18.7093 127.501 19.004C127.501 19.2207 127.449 19.3983 127.345 19.537C127.25 19.667 127.137 19.7797 127.007 19.875C126.886 19.9703 126.773 20.0743 126.669 20.187C126.574 20.2997 126.526 20.4427 126.526 20.616C126.526 20.7113 126.491 20.785 126.422 20.837C126.353 20.889 126.249 20.915 126.11 20.915ZM131.091 28.091C130.883 28.091 130.722 28.0347 130.61 27.922C130.497 27.8007 130.441 27.636 130.441 27.428V22.228C130.441 22.0113 130.497 21.8467 130.61 21.734C130.722 21.6213 130.878 21.565 131.078 21.565C131.286 21.565 131.442 21.6213 131.546 21.734C131.658 21.8467 131.715 22.0113 131.715 22.228V23.242L131.572 23.008C131.762 22.5227 132.061 22.1587 132.469 21.916C132.876 21.6647 133.344 21.539 133.873 21.539C134.375 21.539 134.791 21.6343 135.121 21.825C135.459 22.007 135.71 22.2887 135.875 22.67C136.039 23.0427 136.122 23.515 136.122 24.087V27.428C136.122 27.636 136.065 27.8007 135.953 27.922C135.84 28.0347 135.68 28.091 135.472 28.091C135.255 28.091 135.09 28.0347 134.978 27.922C134.865 27.8007 134.809 27.636 134.809 27.428V24.165C134.809 23.619 134.7 23.2203 134.484 22.969C134.276 22.7177 133.946 22.592 133.496 22.592C132.967 22.592 132.542 22.7567 132.222 23.086C131.91 23.4153 131.754 23.8573 131.754 24.412V27.428C131.754 27.87 131.533 28.091 131.091 28.091ZM138.581 28.091C138.373 28.091 138.212 28.0347 138.1 27.922C137.987 27.8007 137.931 27.636 137.931 27.428V19.407C137.931 19.1903 137.987 19.0257 138.1 18.913C138.212 18.8003 138.373 18.744 138.581 18.744C138.789 18.744 138.949 18.8003 139.062 18.913C139.183 19.0257 139.244 19.1903 139.244 19.407V23.008H139.062C139.252 22.5227 139.551 22.1587 139.959 21.916C140.366 21.6647 140.834 21.539 141.363 21.539C141.865 21.539 142.281 21.6343 142.611 21.825C142.949 22.007 143.2 22.2887 143.365 22.67C143.529 23.0427 143.612 23.515 143.612 24.087V27.428C143.612 27.636 143.555 27.8007 143.443 27.922C143.33 28.0347 143.17 28.091 142.962 28.091C142.745 28.091 142.58 28.0347 142.468 27.922C142.355 27.8007 142.299 27.636 142.299 27.428V24.165C142.299 23.619 142.19 23.2203 141.974 22.969C141.766 22.7177 141.436 22.592 140.986 22.592C140.457 22.592 140.032 22.7567 139.712 23.086C139.4 23.4153 139.244 23.8573 139.244 24.412V27.428C139.244 27.87 139.023 28.091 138.581 28.091ZM151.722 30.457C151.254 30.457 150.799 30.4093 150.357 30.314C149.923 30.2187 149.529 30.0627 149.174 29.846C149.044 29.7767 148.957 29.69 148.914 29.586C148.87 29.4907 148.857 29.391 148.875 29.287C148.901 29.183 148.948 29.092 149.018 29.014C149.087 28.936 149.169 28.884 149.265 28.858C149.369 28.832 149.477 28.8493 149.59 28.91C149.971 29.118 150.331 29.2567 150.669 29.326C151.015 29.404 151.336 29.443 151.631 29.443C152.237 29.443 152.692 29.287 152.996 28.975C153.299 28.6717 153.451 28.221 153.451 27.623V26.297H153.568C153.438 26.7737 153.165 27.1507 152.749 27.428C152.333 27.7053 151.852 27.844 151.306 27.844C150.734 27.844 150.235 27.714 149.811 27.454C149.386 27.1853 149.057 26.817 148.823 26.349C148.589 25.8723 148.472 25.3177 148.472 24.685C148.472 24.2083 148.537 23.7793 148.667 23.398C148.805 23.0167 148.996 22.6873 149.239 22.41C149.49 22.1327 149.789 21.9203 150.136 21.773C150.491 21.617 150.881 21.539 151.306 21.539C151.86 21.539 152.341 21.6777 152.749 21.955C153.165 22.2323 153.433 22.6093 153.555 23.086L153.425 23.307V22.228C153.425 22.0113 153.481 21.8467 153.594 21.734C153.715 21.6213 153.875 21.565 154.075 21.565C154.283 21.565 154.443 21.6213 154.556 21.734C154.668 21.8467 154.725 22.0113 154.725 22.228V27.467C154.725 28.455 154.469 29.2003 153.958 29.703C153.446 30.2057 152.701 30.457 151.722 30.457ZM151.618 26.817C151.999 26.817 152.324 26.7303 152.593 26.557C152.861 26.3837 153.069 26.1367 153.217 25.816C153.364 25.4953 153.438 25.1183 153.438 24.685C153.438 24.035 153.273 23.5193 152.944 23.138C152.623 22.7567 152.181 22.566 151.618 22.566C151.245 22.566 150.924 22.6527 150.656 22.826C150.387 22.9993 150.175 23.2463 150.019 23.567C149.871 23.879 149.798 24.2517 149.798 24.685C149.798 25.3437 149.962 25.8637 150.292 26.245C150.621 26.6263 151.063 26.817 151.618 26.817ZM157.218 28.078C157.01 28.078 156.849 28.0173 156.737 27.896C156.624 27.766 156.568 27.5883 156.568 27.363V22.293C156.568 22.0677 156.624 21.8943 156.737 21.773C156.849 21.6517 157.01 21.591 157.218 21.591C157.426 21.591 157.586 21.6517 157.699 21.773C157.82 21.8943 157.881 22.0677 157.881 22.293V27.363C157.881 27.5883 157.824 27.766 157.712 27.896C157.599 28.0173 157.434 28.078 157.218 28.078ZM157.218 20.239C156.958 20.239 156.754 20.174 156.607 20.044C156.468 19.914 156.399 19.732 156.399 19.498C156.399 19.2553 156.468 19.0733 156.607 18.952C156.754 18.822 156.958 18.757 157.218 18.757C157.478 18.757 157.677 18.822 157.816 18.952C157.963 19.0733 158.037 19.2553 158.037 19.498C158.037 19.732 157.963 19.914 157.816 20.044C157.677 20.174 157.478 20.239 157.218 20.239ZM161.757 28.117C161.315 28.117 160.916 28.0303 160.561 27.857C160.214 27.6837 159.941 27.4497 159.742 27.155C159.542 26.8603 159.443 26.5267 159.443 26.154C159.443 25.686 159.56 25.3177 159.794 25.049C160.036 24.7717 160.431 24.5767 160.977 24.464C161.531 24.3427 162.277 24.282 163.213 24.282H163.824V25.088H163.226C162.602 25.088 162.108 25.1183 161.744 25.179C161.38 25.2397 161.12 25.3437 160.964 25.491C160.816 25.6297 160.743 25.8247 160.743 26.076C160.743 26.4053 160.855 26.674 161.081 26.882C161.306 27.0813 161.618 27.181 162.017 27.181C162.337 27.181 162.619 27.1073 162.862 26.96C163.104 26.804 163.295 26.596 163.434 26.336C163.581 26.076 163.655 25.777 163.655 25.439V23.944C163.655 23.45 163.551 23.0947 163.343 22.878C163.135 22.6613 162.792 22.553 162.316 22.553C162.038 22.553 161.748 22.5877 161.445 22.657C161.15 22.7263 160.842 22.8433 160.522 23.008C160.374 23.0773 160.249 23.099 160.145 23.073C160.041 23.047 159.958 22.9907 159.898 22.904C159.837 22.8087 159.802 22.709 159.794 22.605C159.794 22.4923 159.82 22.384 159.872 22.28C159.932 22.176 160.032 22.098 160.171 22.046C160.552 21.864 160.929 21.734 161.302 21.656C161.674 21.578 162.025 21.539 162.355 21.539C162.935 21.539 163.412 21.63 163.785 21.812C164.166 21.994 164.448 22.2713 164.63 22.644C164.812 23.0167 164.903 23.4977 164.903 24.087V27.428C164.903 27.636 164.851 27.8007 164.747 27.922C164.643 28.0347 164.491 28.091 164.292 28.091C164.101 28.091 163.949 28.0347 163.837 27.922C163.724 27.8007 163.668 27.636 163.668 27.428V26.583H163.785C163.715 26.9037 163.585 27.181 163.395 27.415C163.213 27.6403 162.983 27.8137 162.706 27.935C162.428 28.0563 162.112 28.117 161.757 28.117ZM161.276 20.772C161.18 20.8673 161.085 20.9237 160.99 20.941C160.894 20.9497 160.808 20.9323 160.73 20.889C160.652 20.837 160.6 20.7633 160.574 20.668C160.556 20.5727 160.587 20.473 160.665 20.369L161.601 18.978C161.713 18.8133 161.83 18.7007 161.952 18.64C162.082 18.5793 162.225 18.549 162.381 18.549C162.485 18.549 162.584 18.562 162.68 18.588C162.775 18.614 162.862 18.6573 162.94 18.718C163.026 18.7787 163.1 18.8653 163.161 18.978L164.097 20.369C164.175 20.473 164.205 20.5727 164.188 20.668C164.17 20.7633 164.123 20.837 164.045 20.889C163.975 20.9323 163.889 20.9497 163.785 20.941C163.681 20.9237 163.585 20.8673 163.499 20.772L162.381 19.472L161.276 20.772ZM164.422 19.524C164.361 19.6107 164.287 19.6583 164.201 19.667C164.114 19.6757 164.032 19.6583 163.954 19.615C163.884 19.5717 163.837 19.5067 163.811 19.42C163.793 19.3333 163.815 19.2337 163.876 19.121L164.734 17.626C164.803 17.5047 164.885 17.4267 164.981 17.392C165.085 17.3573 165.184 17.353 165.28 17.379C165.375 17.405 165.453 17.457 165.514 17.535C165.583 17.6043 165.618 17.691 165.618 17.795C165.626 17.8903 165.592 17.99 165.514 18.094L164.422 19.524ZM168.206 30.431C168.05 30.431 167.92 30.3877 167.816 30.301C167.721 30.223 167.664 30.1147 167.647 29.976C167.638 29.846 167.664 29.703 167.725 29.547L168.609 27.558V28.117L166.178 22.462C166.117 22.306 166.096 22.1587 166.113 22.02C166.13 21.8813 166.195 21.773 166.308 21.695C166.421 21.6083 166.572 21.565 166.763 21.565C166.928 21.565 167.058 21.604 167.153 21.682C167.248 21.76 167.335 21.8943 167.413 22.085L169.376 26.934H169.012L171.001 22.085C171.079 21.8857 171.17 21.7513 171.274 21.682C171.378 21.604 171.521 21.565 171.703 21.565C171.859 21.565 171.98 21.6083 172.067 21.695C172.162 21.773 172.219 21.8813 172.236 22.02C172.262 22.15 172.24 22.293 172.171 22.449L168.921 29.924C168.834 30.1233 168.735 30.2577 168.622 30.327C168.518 30.3963 168.379 30.431 168.206 30.431ZM177.543 30.431C177.335 30.431 177.174 30.3747 177.062 30.262C176.949 30.1493 176.893 29.9847 176.893 29.768V22.228C176.893 22.0113 176.949 21.8467 177.062 21.734C177.174 21.6213 177.33 21.565 177.53 21.565C177.738 21.565 177.898 21.6213 178.011 21.734C178.123 21.8467 178.18 22.0113 178.18 22.228V23.359L178.037 23.086C178.175 22.618 178.448 22.2453 178.856 21.968C179.263 21.682 179.744 21.539 180.299 21.539C180.862 21.539 181.352 21.6733 181.768 21.942C182.192 22.2107 182.517 22.5877 182.743 23.073C182.977 23.5583 183.094 24.1433 183.094 24.828C183.094 25.4953 182.977 26.0803 182.743 26.583C182.517 27.077 182.197 27.4583 181.781 27.727C181.365 27.987 180.871 28.117 180.299 28.117C179.753 28.117 179.276 27.9783 178.869 27.701C178.461 27.4237 178.188 27.0553 178.05 26.596H178.206V29.768C178.206 29.9847 178.145 30.1493 178.024 30.262C177.911 30.3747 177.751 30.431 177.543 30.431ZM179.974 27.103C180.338 27.103 180.654 27.0163 180.923 26.843C181.191 26.6697 181.399 26.414 181.547 26.076C181.694 25.738 181.768 25.322 181.768 24.828C181.768 24.0827 181.603 23.5193 181.274 23.138C180.953 22.7567 180.52 22.566 179.974 22.566C179.618 22.566 179.302 22.6527 179.025 22.826C178.756 22.9907 178.548 23.242 178.401 23.58C178.253 23.918 178.18 24.334 178.18 24.828C178.18 25.5647 178.344 26.128 178.674 26.518C179.003 26.908 179.436 27.103 179.974 27.103ZM185.223 28.091C185.015 28.091 184.855 28.0347 184.742 27.922C184.63 27.8007 184.573 27.636 184.573 27.428V19.407C184.573 19.1903 184.63 19.0257 184.742 18.913C184.855 18.8003 185.015 18.744 185.223 18.744C185.431 18.744 185.592 18.8003 185.704 18.913C185.826 19.0257 185.886 19.1903 185.886 19.407V23.008H185.704C185.895 22.5227 186.194 22.1587 186.601 21.916C187.009 21.6647 187.477 21.539 188.005 21.539C188.508 21.539 188.924 21.6343 189.253 21.825C189.591 22.007 189.843 22.2887 190.007 22.67C190.172 23.0427 190.254 23.515 190.254 24.087V27.428C190.254 27.636 190.198 27.8007 190.085 27.922C189.973 28.0347 189.812 28.091 189.604 28.091C189.388 28.091 189.223 28.0347 189.11 27.922C188.998 27.8007 188.941 27.636 188.941 27.428V24.165C188.941 23.619 188.833 23.2203 188.616 22.969C188.408 22.7177 188.079 22.592 187.628 22.592C187.1 22.592 186.675 22.7567 186.354 23.086C186.042 23.4153 185.886 23.8573 185.886 24.412V27.428C185.886 27.87 185.665 28.091 185.223 28.091ZM195.041 28.117C194.347 28.117 193.749 27.987 193.247 27.727C192.753 27.4583 192.367 27.0813 192.09 26.596C191.821 26.102 191.687 25.517 191.687 24.841C191.687 24.1823 191.821 23.606 192.09 23.112C192.358 22.618 192.727 22.2323 193.195 21.955C193.663 21.6777 194.196 21.539 194.794 21.539C195.236 21.539 195.63 21.6127 195.977 21.76C196.323 21.8987 196.618 22.1067 196.861 22.384C197.112 22.6527 197.298 22.982 197.42 23.372C197.55 23.762 197.615 24.1997 197.615 24.685C197.615 24.8323 197.571 24.945 197.485 25.023C197.398 25.0923 197.268 25.127 197.095 25.127H192.727V24.321H196.731L196.51 24.503C196.51 24.0697 196.445 23.7013 196.315 23.398C196.193 23.0947 196.007 22.865 195.756 22.709C195.513 22.5443 195.21 22.462 194.846 22.462C194.438 22.462 194.092 22.5573 193.806 22.748C193.528 22.9387 193.316 23.203 193.169 23.541C193.021 23.879 192.948 24.2733 192.948 24.724V24.802C192.948 25.5647 193.125 26.141 193.481 26.531C193.845 26.9123 194.369 27.103 195.054 27.103C195.314 27.103 195.587 27.0683 195.873 26.999C196.167 26.9297 196.445 26.8127 196.705 26.648C196.852 26.5613 196.982 26.5223 197.095 26.531C197.216 26.5397 197.311 26.5787 197.381 26.648C197.459 26.7173 197.506 26.804 197.524 26.908C197.541 27.012 197.524 27.1203 197.472 27.233C197.42 27.337 197.329 27.4323 197.199 27.519C196.904 27.7183 196.562 27.87 196.172 27.974C195.782 28.0693 195.405 28.117 195.041 28.117ZM195.314 20.746C195.244 20.85 195.158 20.9107 195.054 20.928C194.958 20.9453 194.863 20.928 194.768 20.876C194.672 20.824 194.603 20.7503 194.56 20.655C194.525 20.5597 194.534 20.4557 194.586 20.343L195.639 18.302C195.708 18.1633 195.795 18.0723 195.899 18.029C196.011 17.9857 196.124 17.9813 196.237 18.016C196.358 18.042 196.458 18.094 196.536 18.172C196.622 18.25 196.674 18.3497 196.692 18.471C196.709 18.5837 196.679 18.6963 196.601 18.809L195.314 20.746ZM199.696 30.431C199.488 30.431 199.328 30.3747 199.215 30.262C199.102 30.1493 199.046 29.9847 199.046 29.768V22.228C199.046 22.0113 199.102 21.8467 199.215 21.734C199.328 21.6213 199.484 21.565 199.683 21.565C199.891 21.565 200.051 21.6213 200.164 21.734C200.277 21.8467 200.333 22.0113 200.333 22.228V23.359L200.19 23.086C200.329 22.618 200.602 22.2453 201.009 21.968C201.416 21.682 201.897 21.539 202.452 21.539C203.015 21.539 203.505 21.6733 203.921 21.942C204.346 22.2107 204.671 22.5877 204.896 23.073C205.13 23.5583 205.247 24.1433 205.247 24.828C205.247 25.4953 205.13 26.0803 204.896 26.583C204.671 27.077 204.35 27.4583 203.934 27.727C203.518 27.987 203.024 28.117 202.452 28.117C201.906 28.117 201.429 27.9783 201.022 27.701C200.615 27.4237 200.342 27.0553 200.203 26.596H200.359V29.768C200.359 29.9847 200.298 30.1493 200.177 30.262C200.064 30.3747 199.904 30.431 199.696 30.431ZM202.127 27.103C202.491 27.103 202.807 27.0163 203.076 26.843C203.345 26.6697 203.553 26.414 203.7 26.076C203.847 25.738 203.921 25.322 203.921 24.828C203.921 24.0827 203.756 23.5193 203.427 23.138C203.106 22.7567 202.673 22.566 202.127 22.566C201.772 22.566 201.455 22.6527 201.178 22.826C200.909 22.9907 200.701 23.242 200.554 23.58C200.407 23.918 200.333 24.334 200.333 24.828C200.333 25.5647 200.498 26.128 200.827 26.518C201.156 26.908 201.59 27.103 202.127 27.103ZM210.804 28.091C210.596 28.091 210.436 28.0347 210.323 27.922C210.211 27.8007 210.154 27.636 210.154 27.428V19.407C210.154 19.1903 210.211 19.0257 210.323 18.913C210.436 18.8003 210.596 18.744 210.804 18.744C211.012 18.744 211.173 18.8003 211.285 18.913C211.407 19.0257 211.467 19.1903 211.467 19.407V24.425H211.493L213.924 22.007C214.063 21.8683 214.189 21.76 214.301 21.682C214.414 21.604 214.561 21.565 214.743 21.565C214.925 21.565 215.064 21.6127 215.159 21.708C215.255 21.8033 215.302 21.9203 215.302 22.059C215.302 22.189 215.237 22.3233 215.107 22.462L212.533 25.01V24.399L215.341 27.194C215.48 27.3327 215.545 27.4713 215.536 27.61C215.528 27.7487 215.471 27.8657 215.367 27.961C215.263 28.0477 215.133 28.091 214.977 28.091C214.778 28.091 214.618 28.052 214.496 27.974C214.384 27.896 214.249 27.779 214.093 27.623L211.493 25.101H211.467V27.428C211.467 27.87 211.246 28.091 210.804 28.091ZM217.508 28.078C217.3 28.078 217.139 28.0173 217.027 27.896C216.914 27.766 216.858 27.5883 216.858 27.363V22.293C216.858 22.0677 216.914 21.8943 217.027 21.773C217.139 21.6517 217.3 21.591 217.508 21.591C217.716 21.591 217.876 21.6517 217.989 21.773C218.11 21.8943 218.171 22.0677 218.171 22.293V27.363C218.171 27.5883 218.114 27.766 218.002 27.896C217.889 28.0173 217.724 28.078 217.508 28.078ZM217.508 20.239C217.248 20.239 217.044 20.174 216.897 20.044C216.758 19.914 216.689 19.732 216.689 19.498C216.689 19.2553 216.758 19.0733 216.897 18.952C217.044 18.822 217.248 18.757 217.508 18.757C217.768 18.757 217.967 18.822 218.106 18.952C218.253 19.0733 218.327 19.2553 218.327 19.498C218.327 19.732 218.253 19.914 218.106 20.044C217.967 20.174 217.768 20.239 217.508 20.239ZM220.669 28.091C220.461 28.091 220.3 28.0347 220.188 27.922C220.075 27.8007 220.019 27.636 220.019 27.428V22.228C220.019 22.0113 220.075 21.8467 220.188 21.734C220.3 21.6213 220.456 21.565 220.656 21.565C220.864 21.565 221.02 21.6213 221.124 21.734C221.236 21.8467 221.293 22.0113 221.293 22.228V23.242L221.15 23.008C221.34 22.5227 221.639 22.1587 222.047 21.916C222.454 21.6647 222.922 21.539 223.451 21.539C223.953 21.539 224.369 21.6343 224.699 21.825C225.037 22.007 225.288 22.2887 225.453 22.67C225.617 23.0427 225.7 23.515 225.7 24.087V27.428C225.7 27.636 225.643 27.8007 225.531 27.922C225.418 28.0347 225.258 28.091 225.05 28.091C224.833 28.091 224.668 28.0347 224.556 27.922C224.443 27.8007 224.387 27.636 224.387 27.428V24.165C224.387 23.619 224.278 23.2203 224.062 22.969C223.854 22.7177 223.524 22.592 223.074 22.592C222.545 22.592 222.12 22.7567 221.8 23.086C221.488 23.4153 221.332 23.8573 221.332 24.412V27.428C221.332 27.87 221.111 28.091 220.669 28.091ZM228.159 28.091C227.951 28.091 227.791 28.0347 227.678 27.922C227.565 27.8007 227.509 27.636 227.509 27.428V19.407C227.509 19.1903 227.565 19.0257 227.678 18.913C227.791 18.8003 227.951 18.744 228.159 18.744C228.367 18.744 228.527 18.8003 228.64 18.913C228.761 19.0257 228.822 19.1903 228.822 19.407V23.008H228.64C228.831 22.5227 229.13 22.1587 229.537 21.916C229.944 21.6647 230.412 21.539 230.941 21.539C231.444 21.539 231.86 21.6343 232.189 21.825C232.527 22.007 232.778 22.2887 232.943 22.67C233.108 23.0427 233.19 23.515 233.19 24.087V27.428C233.19 27.636 233.134 27.8007 233.021 27.922C232.908 28.0347 232.748 28.091 232.54 28.091C232.323 28.091 232.159 28.0347 232.046 27.922C231.933 27.8007 231.877 27.636 231.877 27.428V24.165C231.877 23.619 231.769 23.2203 231.552 22.969C231.344 22.7177 231.015 22.592 230.564 22.592C230.035 22.592 229.611 22.7567 229.29 23.086C228.978 23.4153 228.822 23.8573 228.822 24.412V27.428C228.822 27.87 228.601 28.091 228.159 28.091ZM240.845 28.117C240.29 28.117 239.801 27.987 239.376 27.727C238.96 27.4583 238.635 27.077 238.401 26.583C238.167 26.0803 238.05 25.4953 238.05 24.828C238.05 24.1433 238.167 23.5583 238.401 23.073C238.635 22.5877 238.96 22.2107 239.376 21.942C239.801 21.6733 240.29 21.539 240.845 21.539C241.4 21.539 241.876 21.6777 242.275 21.955C242.682 22.2237 242.955 22.5877 243.094 23.047H242.951V19.407C242.951 19.1903 243.007 19.0257 243.12 18.913C243.233 18.8003 243.393 18.744 243.601 18.744C243.809 18.744 243.969 18.8003 244.082 18.913C244.203 19.0257 244.264 19.1903 244.264 19.407V27.428C244.264 27.636 244.208 27.8007 244.095 27.922C243.982 28.0347 243.822 28.091 243.614 28.091C243.406 28.091 243.246 28.0347 243.133 27.922C243.02 27.8007 242.964 27.636 242.964 27.428V26.284L243.107 26.57C242.968 27.038 242.695 27.415 242.288 27.701C241.889 27.9783 241.408 28.117 240.845 28.117ZM241.183 27.103C241.538 27.103 241.85 27.0163 242.119 26.843C242.388 26.6697 242.596 26.414 242.743 26.076C242.899 25.738 242.977 25.322 242.977 24.828C242.977 24.0827 242.812 23.5193 242.483 23.138C242.154 22.7567 241.72 22.566 241.183 22.566C240.819 22.566 240.503 22.6527 240.234 22.826C239.965 22.9907 239.753 23.242 239.597 23.58C239.45 23.918 239.376 24.334 239.376 24.828C239.376 25.5647 239.541 26.128 239.87 26.518C240.199 26.908 240.637 27.103 241.183 27.103ZM248.864 28.117C248.222 28.117 247.668 27.9827 247.2 27.714C246.74 27.4453 246.381 27.064 246.121 26.57C245.861 26.076 245.731 25.4953 245.731 24.828C245.731 24.3167 245.804 23.8617 245.952 23.463C246.099 23.0643 246.307 22.722 246.576 22.436C246.853 22.1413 247.182 21.9203 247.564 21.773C247.954 21.617 248.387 21.539 248.864 21.539C249.496 21.539 250.042 21.6733 250.502 21.942C250.97 22.2107 251.334 22.592 251.594 23.086C251.854 23.5713 251.984 24.152 251.984 24.828C251.984 25.3307 251.91 25.7857 251.763 26.193C251.615 26.6003 251.403 26.947 251.126 27.233C250.857 27.519 250.528 27.74 250.138 27.896C249.756 28.0433 249.332 28.117 248.864 28.117ZM248.864 27.103C249.219 27.103 249.531 27.0163 249.8 26.843C250.068 26.6697 250.276 26.414 250.424 26.076C250.58 25.738 250.658 25.322 250.658 24.828C250.658 24.0827 250.493 23.5193 250.164 23.138C249.834 22.7567 249.401 22.566 248.864 22.566C248.5 22.566 248.183 22.6527 247.915 22.826C247.646 22.9907 247.434 23.242 247.278 23.58C247.13 23.918 247.057 24.334 247.057 24.828C247.057 25.5647 247.221 26.128 247.551 26.518C247.88 26.908 248.318 27.103 248.864 27.103ZM255.486 28.117C255.044 28.117 254.645 28.0303 254.29 27.857C253.943 27.6837 253.67 27.4497 253.471 27.155C253.272 26.8603 253.172 26.5267 253.172 26.154C253.172 25.686 253.289 25.3177 253.523 25.049C253.766 24.7717 254.16 24.5767 254.706 24.464C255.261 24.3427 256.006 24.282 256.942 24.282H257.553V25.088H256.955C256.331 25.088 255.837 25.1183 255.473 25.179C255.109 25.2397 254.849 25.3437 254.693 25.491C254.546 25.6297 254.472 25.8247 254.472 26.076C254.472 26.4053 254.585 26.674 254.81 26.882C255.035 27.0813 255.347 27.181 255.746 27.181C256.067 27.181 256.348 27.1073 256.591 26.96C256.834 26.804 257.024 26.596 257.163 26.336C257.31 26.076 257.384 25.777 257.384 25.439V23.944C257.384 23.45 257.28 23.0947 257.072 22.878C256.864 22.6613 256.522 22.553 256.045 22.553C255.768 22.553 255.477 22.5877 255.174 22.657C254.879 22.7263 254.572 22.8433 254.251 23.008C254.104 23.0773 253.978 23.099 253.874 23.073C253.77 23.047 253.688 22.9907 253.627 22.904C253.566 22.8087 253.532 22.709 253.523 22.605C253.523 22.4923 253.549 22.384 253.601 22.28C253.662 22.176 253.761 22.098 253.9 22.046C254.281 21.864 254.658 21.734 255.031 21.656C255.404 21.578 255.755 21.539 256.084 21.539C256.665 21.539 257.141 21.63 257.514 21.812C257.895 21.994 258.177 22.2713 258.359 22.644C258.541 23.0167 258.632 23.4977 258.632 24.087V27.428C258.632 27.636 258.58 27.8007 258.476 27.922C258.372 28.0347 258.22 28.091 258.021 28.091C257.83 28.091 257.679 28.0347 257.566 27.922C257.453 27.8007 257.397 27.636 257.397 27.428V26.583H257.514C257.445 26.9037 257.315 27.181 257.124 27.415C256.942 27.6403 256.712 27.8137 256.435 27.935C256.158 28.0563 255.841 28.117 255.486 28.117ZM261.091 28.091C260.883 28.091 260.722 28.0347 260.61 27.922C260.497 27.8007 260.441 27.636 260.441 27.428V22.228C260.441 22.0113 260.497 21.8467 260.61 21.734C260.722 21.6213 260.878 21.565 261.078 21.565C261.286 21.565 261.442 21.6213 261.546 21.734C261.658 21.8467 261.715 22.0113 261.715 22.228V23.242L261.572 23.008C261.762 22.5227 262.061 22.1587 262.469 21.916C262.876 21.6647 263.344 21.539 263.873 21.539C264.375 21.539 264.791 21.6343 265.121 21.825C265.459 22.007 265.71 22.2887 265.875 22.67C266.039 23.0427 266.122 23.515 266.122 24.087V27.428C266.122 27.636 266.065 27.8007 265.953 27.922C265.84 28.0347 265.68 28.091 265.472 28.091C265.255 28.091 265.09 28.0347 264.978 27.922C264.865 27.8007 264.809 27.636 264.809 27.428V24.165C264.809 23.619 264.7 23.2203 264.484 22.969C264.276 22.7177 263.946 22.592 263.496 22.592C262.967 22.592 262.542 22.7567 262.222 23.086C261.91 23.4153 261.754 23.8573 261.754 24.412V27.428C261.754 27.87 261.533 28.091 261.091 28.091ZM268.581 28.091C268.373 28.091 268.212 28.0347 268.1 27.922C267.987 27.8007 267.931 27.636 267.931 27.428V19.407C267.931 19.1903 267.987 19.0257 268.1 18.913C268.212 18.8003 268.373 18.744 268.581 18.744C268.789 18.744 268.949 18.8003 269.062 18.913C269.183 19.0257 269.244 19.1903 269.244 19.407V23.008H269.062C269.252 22.5227 269.551 22.1587 269.959 21.916C270.366 21.6647 270.834 21.539 271.363 21.539C271.865 21.539 272.281 21.6343 272.611 21.825C272.949 22.007 273.2 22.2887 273.365 22.67C273.529 23.0427 273.612 23.515 273.612 24.087V27.428C273.612 27.636 273.555 27.8007 273.443 27.922C273.33 28.0347 273.17 28.091 272.962 28.091C272.745 28.091 272.58 28.0347 272.468 27.922C272.355 27.8007 272.299 27.636 272.299 27.428V24.165C272.299 23.619 272.19 23.2203 271.974 22.969C271.766 22.7177 271.436 22.592 270.986 22.592C270.457 22.592 270.032 22.7567 269.712 23.086C269.4 23.4153 269.244 23.8573 269.244 24.412V27.428C269.244 27.87 269.023 28.091 268.581 28.091Z" fill="#949499"/>
</svg>
