<svg width="24" height="24" viewBox="0 0 24 24" fill="none" xmlns="http://www.w3.org/2000/svg">
<g id="Calling">
<g id="Iconly/Light-Outline/Calling">
<g id="Calling_2">
<path id="Combined-Shape" fill-rule="evenodd" clip-rule="evenodd" d="M6.65741 2.00054C7.77441 2.01554 8.57041 2.85254 9.57741 3.91154C9.82641 4.17254 10.0954 4.45754 10.3964 4.75754C11.8554 6.21754 11.4404 7.40854 11.1054 8.36454C10.7414 9.40754 10.4264 10.3075 12.3124 12.1935C14.1984 14.0795 15.0974 13.7645 16.1394 13.3975C17.0964 13.0635 18.2844 12.6455 19.7464 14.1055C20.0434 14.4025 20.3234 14.6685 20.5834 14.9155C21.6464 15.9275 22.4864 16.7265 22.5006 17.8465C22.5114 18.8005 21.9314 19.7745 20.4994 21.2065L19.8654 20.7765L20.4024 21.2995C20.0854 21.6245 19.2424 22.4905 17.5914 22.5005H17.5614C15.0694 22.5005 11.8204 20.5165 7.90441 16.6015C3.97241 12.6705 1.98541 9.41154 2.00033 6.91454C2.00941 5.26454 2.87441 4.41954 3.19941 4.10254L3.22715 4.07224L3.29441 4.00454C4.72941 2.56954 5.71541 1.97954 6.65741 2.00054ZM6.63841 3.50054H6.63041C6.18135 3.50054 5.49938 3.95054 4.54824 4.87444L4.35724 5.062L4.35941 5.06154C4.35941 5.06154 4.34309 5.08026 4.31528 5.10863L4.24841 5.17554C4.00641 5.41054 3.50541 5.89954 3.50036 6.92254C3.49241 8.35354 4.43341 11.0105 8.96441 15.5405C13.4734 20.0485 16.1264 21.0005 17.5614 21.0005H17.5824C18.6054 20.9945 19.0934 20.4935 19.3284 20.2525C19.3994 20.1795 19.4574 20.1245 19.4984 20.0915C20.4954 19.0885 21.0054 18.3435 21.0004 17.8645C20.9944 17.3765 20.3874 16.8005 19.5484 16.0015C19.2814 15.7485 18.9914 15.4715 18.6854 15.1655C17.8914 14.3745 17.5004 14.5095 16.6354 14.8135C15.4404 15.2325 13.8034 15.8065 11.2524 13.2535C8.70041 10.7025 9.27241 9.06554 9.68941 7.86954C9.99141 7.00554 10.1294 6.61254 9.33641 5.81854C9.02641 5.50854 8.74741 5.21454 8.49041 4.94454C7.69641 4.11054 7.12341 3.50754 6.63841 3.50054ZM15.2465 5.55804C17.3275 5.96204 18.9345 7.56804 19.3395 9.65004C19.4185 10.058 19.1535 10.451 18.7475 10.53C18.6985 10.539 18.6505 10.544 18.6025 10.544C18.2505 10.544 17.9375 10.296 17.8675 9.93804C17.5795 8.45804 16.4385 7.31704 14.9605 7.03004C14.5535 6.95104 14.2885 6.55804 14.3675 6.15104C14.4465 5.74404 14.8465 5.47804 15.2465 5.55804ZM15.1866 2.00624C19.2646 2.45924 22.4316 5.62224 22.8886 9.69924C22.9346 10.1112 22.6386 10.4822 22.2276 10.5282C22.1996 10.5312 22.1706 10.5332 22.1426 10.5332C21.7656 10.5332 21.4416 10.2502 21.3986 9.86724C21.0196 6.49124 18.3976 3.87124 15.0206 3.49624C14.6096 3.45024 14.3126 3.08024 14.3586 2.66824C14.4036 2.25724 14.7706 1.95424 15.1866 2.00624Z" fill="#636366"/>
</g>
</g>
</g>
</svg>
