<svg width="16" height="16" viewBox="0 0 16 16" fill="none" xmlns="http://www.w3.org/2000/svg">
<g id="bxs-camera.svg">
<path id="Vector" d="M8 6C6.916 6 6 6.916 6 8C6 9.084 6.916 10 8 10C9.084 10 10 9.084 10 8C10 6.916 9.084 6 8 6Z" fill="#063782"/>
<path id="Vector_2" d="M13.3333 3.33398H11.6093L9.80458 1.52932C9.74278 1.46729 9.66932 1.4181 9.58843 1.38457C9.50754 1.35105 9.42081 1.33386 9.33325 1.33399H6.66658C6.57902 1.33386 6.4923 1.35105 6.41141 1.38457C6.33052 1.4181 6.25706 1.46729 6.19525 1.52932L4.39059 3.33398H2.66659C1.93125 3.33398 1.33325 3.93198 1.33325 4.66732V12.0007C1.33325 12.736 1.93125 13.334 2.66659 13.334H13.3333C14.0686 13.334 14.6666 12.736 14.6666 12.0007V4.66732C14.6666 3.93198 14.0686 3.33398 13.3333 3.33398ZM7.99992 11.334C6.19325 11.334 4.66658 9.80732 4.66658 8.00065C4.66658 6.19398 6.19325 4.66732 7.99992 4.66732C9.80658 4.66732 11.3333 6.19398 11.3333 8.00065C11.3333 9.80732 9.80658 11.334 7.99992 11.334Z" fill="#063782"/>
</g>
</svg>
