<svg width="24" height="24" viewBox="0 0 24 24" fill="none" xmlns="http://www.w3.org/2000/svg">
<path d="M12 24C18.6274 24 24 18.6274 24 12C24 5.37258 18.6274 0 12 0C5.37258 0 0 5.37258 0 12C0 18.6274 5.37258 24 12 24Z" fill="#063782"/>
<path fill-rule="evenodd" clip-rule="evenodd" d="M18.7389 8.32684C18.8127 8.41367 18.8687 8.5142 18.9036 8.62269C18.9386 8.73117 18.9518 8.84548 18.9425 8.95907C18.9332 9.07266 18.9016 9.18331 18.8495 9.28468C18.7974 9.38605 18.7259 9.47615 18.6389 9.54984L10.3279 16.6858C10.121 16.861 9.854 16.9485 9.5836 16.9298C9.3132 16.9111 9.06075 16.7877 8.8799 16.5858L5.2469 12.5858C5.16553 12.5024 5.10177 12.4035 5.05942 12.2949C5.01706 12.1863 4.99698 12.0703 5.00037 11.9538C5.00375 11.8373 5.03053 11.7227 5.07912 11.6168C5.1277 11.5109 5.1971 11.4158 5.28318 11.3372C5.36926 11.2587 5.47026 11.1982 5.58018 11.1595C5.69009 11.1207 5.80668 11.1045 5.92299 11.1118C6.03931 11.119 6.15298 11.1496 6.25724 11.2016C6.36151 11.2537 6.45423 11.3262 6.5299 11.4148L9.7119 14.8828L17.5119 8.19784C17.6 8.12523 17.7017 8.07074 17.8109 8.03751C17.9202 8.00429 18.0349 7.99297 18.1485 8.00421C18.2622 8.01546 18.3725 8.04904 18.4731 8.10303C18.5737 8.15702 18.6627 8.23036 18.7349 8.31884L18.7389 8.32684Z" fill="white"/>
</svg>
