<svg width="24" height="24" viewBox="0 0 24 24" fill="none" xmlns="http://www.w3.org/2000/svg">
<path d="M12 24C18.6274 24 24 18.6274 24 12C24 5.37258 18.6274 0 12 0C5.37258 0 0 5.37258 0 12C0 18.6274 5.37258 24 12 24Z" fill="white"/>
<path d="M12 23.25C18.2132 23.25 23.25 18.2132 23.25 12C23.25 5.7868 18.2132 0.75 12 0.75C5.7868 0.75 0.75 5.7868 0.75 12C0.75 18.2132 5.7868 23.25 12 23.25Z" stroke="#C0C0CE" stroke-width="1.5"/>
<path fill-rule="evenodd" clip-rule="evenodd" d="M19.1608 7.93621C19.2346 8.02304 19.2906 8.12358 19.3255 8.23206C19.3604 8.34055 19.3736 8.45485 19.3644 8.56845C19.3551 8.68204 19.3235 8.79268 19.2714 8.89405C19.2193 8.99542 19.1477 9.08553 19.0608 9.15921L10.7498 16.2952C10.5429 16.4703 10.2759 16.5579 10.0055 16.5392C9.73508 16.5205 9.48262 16.3971 9.30178 16.1952L5.66878 12.1952C5.58741 12.1118 5.52365 12.0128 5.48129 11.9043C5.43894 11.7957 5.41886 11.6797 5.42224 11.5632C5.42563 11.4467 5.45241 11.3321 5.50099 11.2262C5.54958 11.1202 5.61897 11.0252 5.70505 10.9466C5.79113 10.868 5.89213 10.8076 6.00205 10.7689C6.11197 10.7301 6.22855 10.7139 6.34487 10.7211C6.46118 10.7284 6.57486 10.7589 6.67912 10.811C6.78338 10.8631 6.87611 10.9356 6.95178 11.0242L10.1338 14.4922L17.9338 7.80721C18.0219 7.7346 18.1235 7.68012 18.2328 7.64689C18.342 7.61366 18.4568 7.60234 18.5704 7.61359C18.6841 7.62483 18.7944 7.65841 18.895 7.71241C18.9956 7.7664 19.0846 7.83974 19.1568 7.92821L19.1608 7.93621Z" fill="white"/>
</svg>
