<svg width="64" height="64" viewBox="0 0 64 64" fill="none" xmlns="http://www.w3.org/2000/svg">
<g id="delivery-cancelled 1">
<path id="Vector" d="M58.2398 17.8991V46.0991C58.2398 46.4964 58.1313 46.8861 57.926 47.2263C57.7206 47.5664 57.4263 47.844 57.0748 48.0291L33.0198 60.7041C32.7058 60.8715 32.3555 60.9591 31.9998 60.9591C31.644 60.9591 31.2937 60.8715 30.9798 60.7041L6.92477 48.0291C6.57321 47.844 6.27888 47.5664 6.07357 47.2263C5.86825 46.8861 5.75975 46.4964 5.75977 46.0991V17.8991C5.75975 17.5018 5.86825 17.112 6.07357 16.7719C6.27888 16.4317 6.57321 16.1541 6.92477 15.9691L30.9798 3.29406C31.2937 3.12664 31.644 3.03906 31.9998 3.03906C32.3555 3.03906 32.7058 3.12664 33.0198 3.29406L40.6348 7.30406L48.2798 11.3341L57.0748 15.9691C57.4263 16.1541 57.7206 16.4317 57.926 16.7719C58.1313 17.112 58.2398 17.5018 58.2398 17.8991Z" fill="#5C8EFF"/>
<path id="Vector_2" d="M57.828 16.7901C57.7382 16.6127 57.5816 16.4782 57.3927 16.4163C57.2038 16.3543 56.9979 16.3699 56.8205 16.4596L32.65 28.6941C32.4484 28.7957 32.2258 28.8486 32 28.8486C31.7742 28.8486 31.5516 28.7957 31.35 28.6941L7.1645 16.4986C6.98688 16.409 6.78094 16.3937 6.59199 16.4559C6.40305 16.5182 6.24658 16.653 6.157 16.8306C6.06743 17.0082 6.05208 17.2142 6.11434 17.4031C6.17661 17.592 6.31138 17.7485 6.489 17.8381L30.675 30.0321C30.8586 30.1238 31.0513 30.1959 31.25 30.2471V60.1471C31.25 60.346 31.329 60.5368 31.4697 60.6774C31.6103 60.8181 31.8011 60.8971 32 60.8971C32.1989 60.8971 32.3897 60.8181 32.5303 60.6774C32.671 60.5368 32.75 60.346 32.75 60.1471V30.2486C32.9494 30.1974 33.1428 30.1251 33.327 30.0331L57.5 17.7986C57.6772 17.7083 57.8113 17.5514 57.8728 17.3623C57.9343 17.1731 57.9182 16.9673 57.828 16.7901Z" fill="#4856B5"/>
<path id="Vector_3" d="M53.8496 54.6904C58.6937 54.6904 62.6206 50.7635 62.6206 45.9194C62.6206 41.0753 58.6937 37.1484 53.8496 37.1484C49.0055 37.1484 45.0786 41.0753 45.0786 45.9194C45.0786 50.7635 49.0055 54.6904 53.8496 54.6904Z" fill="#FF6671"/>
<path id="Vector_4" d="M47.7035 52.8177C47.5552 52.8177 47.4102 52.7737 47.2869 52.6913C47.1636 52.6089 47.0675 52.4918 47.0108 52.3548C46.954 52.2179 46.9391 52.0671 46.968 51.9217C46.9968 51.7762 47.0682 51.6426 47.173 51.5377L59.4655 39.2457C59.6069 39.1091 59.7964 39.0335 59.993 39.0352C60.1897 39.0369 60.3778 39.1158 60.5168 39.2548C60.6559 39.3939 60.7348 39.582 60.7365 39.7786C60.7382 39.9753 60.6626 40.1647 60.526 40.3062L48.2335 52.6007C48.1637 52.67 48.081 52.7248 47.9901 52.762C47.8991 52.7993 47.8017 52.8182 47.7035 52.8177Z" fill="#D3465E"/>
<path id="Vector_5" d="M59.9953 52.8166C59.8969 52.8168 59.7993 52.7975 59.7084 52.7598C59.6174 52.7221 59.5348 52.6668 59.4653 52.5971L47.1728 40.3051C47.1012 40.2359 47.044 40.1531 47.0047 40.0616C46.9654 39.9701 46.9447 39.8717 46.9439 39.7721C46.943 39.6726 46.962 39.5738 46.9997 39.4816C47.0374 39.3895 47.0931 39.3057 47.1635 39.2353C47.2339 39.1649 47.3177 39.1092 47.4098 39.0715C47.502 39.0338 47.6008 39.0148 47.7004 39.0157C47.7999 39.0165 47.8984 39.0372 47.9899 39.0765C48.0814 39.1158 48.1641 39.173 48.2333 39.2446L60.5258 51.5366C60.6306 51.6415 60.7019 51.7751 60.7308 51.9206C60.7597 52.066 60.7448 52.2168 60.688 52.3537C60.6312 52.4907 60.5351 52.6078 60.4118 52.6902C60.2885 52.7726 60.1436 52.8166 59.9953 52.8166Z" fill="#D3465E"/>
<path id="Vector_6" d="M48.2799 11.3347L23.0649 24.0997C22.704 24.2818 22.4007 24.5605 22.1889 24.9048C21.977 25.2491 21.8648 25.6454 21.8649 26.0497V37.3597C21.8646 37.578 21.7989 37.7912 21.6764 37.9719C21.5538 38.1526 21.3801 38.2926 21.1774 38.3737C20.9747 38.4549 20.7524 38.4736 20.539 38.4275C20.3257 38.3813 20.1309 38.2724 19.9799 38.1147L17.815 35.8547C17.6868 35.72 17.526 35.6207 17.3482 35.5664C17.1703 35.5121 16.9815 35.5046 16.7999 35.5447L15.3849 35.8497C15.2256 35.8835 15.0608 35.8813 14.9024 35.8432C14.744 35.8051 14.5962 35.7322 14.4697 35.6296C14.3432 35.527 14.2412 35.3975 14.1711 35.2504C14.1011 35.1034 14.0648 34.9426 14.0649 34.7797V22.0997C14.0639 21.6958 14.175 21.2996 14.3861 20.9553C14.5971 20.611 14.8996 20.3321 15.2599 20.1497L40.6349 7.30469L48.2799 11.3347Z" fill="#4856B5"/>
</g>
</svg>
