<svg width="56" height="56" viewBox="0 0 56 56" fill="none" xmlns="http://www.w3.org/2000/svg">
<g id="ep:avatar">
<path id="Vector" d="M32.2092 26.6092C35.3217 27.5192 38.0555 29.4133 40.0009 32.0078C41.9463 34.6022 42.9986 37.7572 43 41H13C13.0007 37.757 14.0526 34.6017 15.9982 32.0071C17.9437 29.4125 20.6779 27.5185 23.7908 26.6092L28 32.9231L32.2092 26.6092ZM35.5 18.5C35.5 20.4891 34.7098 22.3968 33.3033 23.8033C31.8968 25.2098 29.9891 26 28 26C26.0109 26 24.1032 25.2098 22.6967 23.8033C21.2902 22.3968 20.5 20.4891 20.5 18.5C20.5 16.5109 21.2902 14.6032 22.6967 13.1967C24.1032 11.7902 26.0109 11 28 11C29.9891 11 31.8968 11.7902 33.3033 13.1967C34.7098 14.6032 35.5 16.5109 35.5 18.5Z" fill="#2758A0"/>
</g>
</svg>
