<svg width="90" height="90" viewBox="0 0 90 90" fill="none" xmlns="http://www.w3.org/2000/svg">
<g id="Frame">
<g id="Group">
<g id="Group_2">
<g id="Group_3">
<path id="Vector" fill-rule="evenodd" clip-rule="evenodd" d="M40.6771 55.5866C40.7731 53.8286 40.3186 52.1846 39.7141 50.5586C38.8471 48.2231 37.9576 45.8921 37.4836 43.4306C37.3351 42.6566 37.3231 41.8796 37.3846 41.1071C37.4416 40.3781 37.7401 39.7271 38.5066 39.4976C39.2701 39.2666 39.7381 39.7886 40.1371 40.3196C40.9816 41.4491 41.4826 42.7571 41.8981 44.0816C42.7396 46.7756 43.5406 49.4876 43.7701 52.3166C43.8346 53.1116 44.1571 53.3096 44.8681 53.1086C46.3561 52.6901 47.8711 52.6556 49.3666 52.9886C53.0446 53.7986 55.0351 56.9531 54.4771 61.0136C53.9416 64.9076 51.3406 67.3316 47.1316 67.9001C45.4966 68.1221 43.8736 68.0906 42.2446 67.8656C40.3786 67.6091 38.8306 67.0481 37.6516 65.3051C36.1906 63.1436 34.2601 61.3211 32.1631 59.7206C31.9036 59.5241 31.6516 59.3036 31.4386 59.0606C30.8656 58.4126 30.2086 57.7271 30.6646 56.7851C31.1671 55.7546 32.1841 55.5821 33.1951 55.6901C34.7866 55.8596 36.0166 56.7176 36.9736 57.9716C37.5181 58.6871 38.0206 59.4356 38.5516 60.1616C40.3066 62.5601 43.6321 63.6521 46.4716 62.7671C47.9971 62.2916 48.7591 61.3226 48.6961 59.9336C48.6361 58.5851 47.7496 57.7136 46.1326 57.4256C44.8906 57.2036 43.6876 57.4106 42.5056 57.7856C40.8796 58.3016 40.5106 58.0196 40.6126 56.3216C40.6261 56.0741 40.6546 55.8311 40.6771 55.5866Z" fill="#214393"/>
<path id="Vector_2" fill-rule="evenodd" clip-rule="evenodd" d="M56.4496 47.7115C56.0941 49.9405 55.0516 51.955 53.9356 53.9395C53.7496 54.2725 53.4796 54.2995 53.1556 54.142C52.7701 53.9545 52.3711 53.7295 52.5031 53.2405C53.0791 51.0775 53.6611 48.91 54.9811 47.047C55.2166 46.714 55.5391 46.3945 56.0086 46.594C56.4646 46.789 56.4211 47.242 56.4496 47.7115Z" fill="#214393"/>
<path id="Vector_3" fill-rule="evenodd" clip-rule="evenodd" d="M52.665 41.763C52.5105 41.193 52.179 40.7415 51.549 40.674C50.946 40.608 50.481 40.9005 50.148 41.394C49.914 41.7405 49.818 42.1245 49.785 42.5415C49.6665 43.9125 49.5465 45.282 49.425 46.6395C48.714 46.5675 48.0015 46.5615 47.289 46.5855C47.322 46.0755 47.355 45.5655 47.3865 45.0555C47.529 43.2735 47.4735 41.4975 47.304 39.72C47.1285 37.872 46.581 37.0395 45.5715 37.0965C44.286 37.167 43.7355 38.016 43.7595 39.8835C43.761 40.0125 43.7535 40.1445 43.764 40.275C44.067 43.821 44.3955 47.367 44.652 50.9175C44.7135 51.759 45.051 52.104 45.8445 52.0695C46.581 52.0365 47.0325 51.7845 47.0565 50.9055C47.0805 50.0565 47.127 49.2075 47.178 48.3585C47.8725 48.4485 48.609 48.5025 49.3005 48.4995C49.248 49.0935 49.185 49.6845 49.185 50.2695V51.486C49.185 51.855 49.257 52.131 49.6635 52.218C50.0715 52.3065 50.4705 52.398 50.7285 51.9555C50.913 51.642 51.0825 51.306 51.1785 50.958C51.8415 48.615 52.4655 46.2645 52.812 43.848C52.9125 43.1385 52.848 42.444 52.665 41.763Z" fill="#214393"/>
<path id="Vector_4" d="M63.4411 50.6865C63.4351 50.472 63.4305 50.2575 63.4245 50.043C63.417 49.827 63.393 49.605 63.378 49.386C63.354 48.9435 63.2865 48.507 63.2325 48.066C63.0945 47.19 62.9221 46.305 62.661 45.4365C62.5471 44.997 62.3866 44.5695 62.2426 44.136C62.1586 43.923 62.076 43.7085 61.9921 43.4955L61.8645 43.1745L61.7221 42.8595C60.2326 39.4815 57.708 36.4155 54.4651 34.269C53.6581 33.7275 52.8015 33.258 51.9195 32.8335C51.0361 32.4105 50.1135 32.07 49.1745 31.7775C48.234 31.488 47.2665 31.287 46.2915 31.134C45.3105 30.9915 44.3355 30.9285 43.3305 30.918C42.372 30.936 41.3596 31.0035 40.3891 31.1535C39.4156 31.3125 38.4496 31.521 37.5106 31.815C36.5746 32.1135 35.6536 32.46 34.7731 32.8875C33.8956 33.318 33.0406 33.7935 32.2365 34.3395C29.007 36.5055 26.502 39.5865 25.0335 42.975L24.8925 43.2915L24.768 43.614C24.6855 43.8285 24.603 44.043 24.522 44.256C24.381 44.691 24.2235 45.12 24.111 45.5595C23.856 46.4295 23.6895 47.3145 23.5575 48.192C23.505 48.633 23.442 49.071 23.421 49.509C23.4075 49.728 23.3865 49.9455 23.379 50.1645C23.3745 50.382 23.37 50.5995 23.367 50.817L23.3625 51.1485L23.373 51.468C23.379 51.681 23.3865 51.8925 23.3925 52.104C23.4285 52.5315 23.451 52.962 23.5065 53.3805C23.7135 55.0575 24.105 56.667 24.681 58.149C25.2525 59.6325 25.977 60.996 26.802 62.217C27.2445 62.8695 27.717 63.471 28.206 64.038L28.7115 63.2175C28.3455 62.7135 27.996 62.1855 27.675 61.6275C26.9775 60.4155 26.3895 59.0835 25.956 57.663C25.5345 56.2395 25.308 54.7215 25.251 53.1765C25.233 52.788 25.251 52.431 25.2495 52.0485C25.26 51.837 25.2705 51.624 25.281 51.411L25.2975 51.09C25.2975 51.039 25.299 51.114 25.3005 51.093L25.305 51.057L25.3125 50.9835L25.329 50.8365C25.35 50.6415 25.371 50.445 25.392 50.2485C25.4145 50.0535 25.4535 49.8585 25.482 49.6635C25.5345 49.272 25.629 48.885 25.7085 48.4965C26.0685 46.9485 26.6475 45.438 27.408 44.0175C28.1595 42.5925 29.1285 41.2695 30.258 40.101C30.8265 39.519 31.422 38.964 32.055 38.451C32.688 37.938 33.369 37.4865 34.056 37.053C34.749 36.6255 35.481 36.264 36.2265 35.9385C36.969 35.607 37.7415 35.3415 38.5215 35.1165L39.1125 34.9635C39.309 34.914 39.5101 34.8795 39.7096 34.836L40.0065 34.7685L40.3081 34.7175C40.5091 34.686 40.7085 34.6425 40.911 34.617L41.517 34.5435C41.7255 34.5135 41.8921 34.515 42.0811 34.497L42.357 34.4745C42.3976 34.47 42.459 34.4685 42.5205 34.467L42.702 34.4625L43.4296 34.4475C43.281 34.4505 43.41 34.449 43.3876 34.4505L43.425 34.452L43.5016 34.455L43.6545 34.458L43.9606 34.4625C44.1646 34.4595 44.3685 34.476 44.5725 34.4895C44.9805 34.506 45.3856 34.5585 45.7891 34.6035C46.5946 34.7235 47.3925 34.881 48.1786 35.091C49.746 35.523 51.252 36.174 52.653 37.0005C52.8315 37.0995 52.9965 37.218 53.169 37.326C53.3415 37.434 53.511 37.5465 53.6745 37.6665C53.841 37.7835 54.0121 37.8945 54.1756 38.016L54.66 38.3865C55.2945 38.895 55.8976 39.4425 56.4631 40.026C57.5986 41.187 58.575 42.501 59.337 43.92C60.1005 45.336 60.693 46.839 61.062 48.384C61.1445 48.7695 61.2421 49.1655 61.2946 49.5285C61.3246 49.719 61.3636 49.887 61.3891 50.0955C61.4116 50.31 61.4356 50.5245 61.458 50.7375L61.4761 50.898L61.4851 50.9775L61.4895 51.018C61.4911 51.0405 61.4896 50.9625 61.4911 51.0135L61.509 51.306C61.521 51.501 61.5345 51.6975 61.5466 51.891C61.5495 52.2795 61.5676 52.671 61.5526 53.0565C61.5076 54.6015 61.2886 56.118 60.8806 57.546C60.4576 58.968 59.8786 60.303 59.1901 61.5195C58.8601 62.0985 58.5031 62.646 58.1266 63.168L58.6336 63.99C59.1361 63.405 59.622 62.7825 60.0735 62.106C60.8895 60.879 61.6065 59.511 62.169 58.0245C62.7346 56.538 63.1171 54.927 63.3135 53.2485C63.3675 52.8285 63.3856 52.4025 63.4186 51.9765C63.4276 51.5535 63.4606 51.126 63.4411 50.6865Z" fill="#214393"/>
<path id="Vector_5" d="M61.5992 37.7372L61.4027 37.7582L60.6182 37.3742L60.6572 37.1552L69.2792 28.2092L69.4922 28.1777L70.7597 30.0542L70.6697 30.5432L61.5992 37.7372Z" fill="#214393"/>
<path id="Vector_6" d="M64.5719 52.9268L64.4054 52.8203L64.0334 52.0283L64.2014 51.8828L76.5239 50.2988L76.7114 50.4068L76.5239 52.6643L76.1489 52.9913L64.5719 52.9268Z" fill="#214393"/>
<path id="Vector_7" d="M25.1505 37.7372L25.347 37.7582L26.133 37.3742L26.094 37.1552L17.472 28.2092L17.2575 28.1777L15.9915 30.0542L16.08 30.5432L25.1505 37.7372Z" fill="#214393"/>
<path id="Vector_8" d="M22.1791 52.9268L22.3456 52.8203L22.7161 52.0283L22.5496 51.8828L10.2271 50.2988L10.0396 50.4068L10.2271 52.6643L10.6021 52.9913L22.1791 52.9268Z" fill="#214393"/>
<path id="Vector_9" d="M44.19 28.3663L44.073 28.5253L43.26 28.8463L43.125 28.6693L42.321 16.2718L42.441 16.0918L44.682 16.4203L44.9835 16.8163L44.19 28.3663Z" fill="#214393"/>
</g>
</g>
</g>
</g>
</svg>
