<svg width="126" height="133" viewBox="0 0 126 133" fill="none" xmlns="http://www.w3.org/2000/svg">
<g clip-path="url(#clip0_11961_45352)">
<path d="M46.7928 24.7413C47.1107 25.0214 103.192 80.7071 103.192 80.7071C103.192 80.7071 108.763 65.126 100.191 55.0231C99.7928 54.5118 95.5609 49.3581 85.9416 47.1214C86.4432 46.9613 103.013 43.4396 102.404 24.519C102.48 23.3851 101.508 0.782615 74.8087 0C73.9534 0.0711468 22.8342 0 22.8342 0L36.036 13.1266C36.036 13.1266 38.7275 16.0525 35.8927 19.1607C35.5748 19.4631 32.8475 22.0733 29.6277 19.4453C29.3052 19.1429 22.5117 12.3929 22.5117 12.3929V29.3125L89.0854 95.4167C89.0854 95.4167 95.8744 93.2734 98.6822 88.9335C98.1852 88.4443 41.1233 31.7804 41.1233 31.7804C41.1233 31.7804 37.5094 28.7033 40.7516 25.0615C40.9935 24.7368 43.7341 22.3846 46.7928 24.7413ZM69.3945 20.3791H73.7832V16.2037C73.7832 14.2738 75.3595 12.7086 77.3031 12.7086C79.2466 12.7086 80.823 14.2738 80.823 16.2037V20.3791H85.2117C87.1552 20.3791 88.7316 21.9443 88.7316 23.8742C88.7316 25.804 87.1552 27.3693 85.2117 27.3693H80.823V31.5447C80.823 33.4746 79.2466 35.0398 77.3031 35.0398C75.3595 35.0398 73.7832 33.4746 73.7832 31.5447V27.3693H69.3945C67.4509 27.3693 65.8746 25.804 65.8746 23.8742C65.8791 21.9443 67.4554 20.3791 69.3945 20.3791Z" fill="white"/>
<path d="M22.5117 41.5322V54.2453L40.5098 72.1031C40.5098 72.1031 43.3401 74.6599 46.5286 72.112C47.1018 71.7073 49.6141 68.5413 46.5957 65.4509C46.2554 65.1085 22.5117 41.5322 22.5117 41.5322Z" fill="white"/>
<path d="M79.35 97.9694L57.5006 76.2963C57.5006 76.2963 54.7017 73.7751 51.5848 76.2963C51.3699 76.4342 47.6305 79.8403 52.2924 83.8157L66.5467 97.9694H79.35Z" fill="white"/>
<path d="M22.5117 66.4648V97.9695H54.2401L22.5117 66.4648Z" fill="white"/>
<path d="M45.9199 132.933H38.6697C37.6217 132.933 36.8784 132.702 36.4305 132.235C35.9827 131.768 35.7588 131.03 35.7588 130.012V112.301C35.7588 111.26 35.9872 110.513 36.4484 110.06C36.9052 109.606 37.6486 109.375 38.6741 109.375H46.3588C47.4918 109.375 48.4725 109.446 49.3055 109.584C50.134 109.722 50.8818 109.993 51.5401 110.389C52.0999 110.722 52.597 111.14 53.0269 111.652C53.4568 112.159 53.7882 112.723 54.0121 113.337C54.2405 113.955 54.3525 114.604 54.3525 115.289C54.3525 117.646 53.1657 119.371 50.7923 120.461C53.9091 121.448 55.4676 123.364 55.4676 126.215C55.4676 127.531 55.1272 128.718 54.4465 129.772C53.7658 130.826 52.8478 131.608 51.6969 132.111C50.9759 132.409 50.1429 132.622 49.207 132.747C48.2665 132.871 47.1694 132.933 45.9199 132.933ZM40.564 112.959V119.047H44.9661C46.1618 119.047 47.0888 118.935 47.7426 118.709C48.3964 118.482 48.8935 118.055 49.2383 117.423C49.507 116.974 49.6414 116.472 49.6414 115.912C49.6414 114.724 49.2159 113.933 48.3651 113.542C47.5142 113.15 46.211 112.955 44.4645 112.955H40.564V112.959ZM45.5617 122.47H40.564V129.345H45.7274C48.9741 129.345 50.5997 128.184 50.5997 125.859C50.5997 124.672 50.1788 123.809 49.3368 123.271C48.4905 122.742 47.2365 122.47 45.5617 122.47Z" fill="white"/>
<path d="M70.0623 108.975C72.5209 108.975 74.6346 109.468 76.3991 110.46C78.1635 111.451 79.498 112.861 80.4026 114.684C81.3072 116.512 81.764 118.655 81.764 121.118C81.764 122.942 81.5177 124.596 81.0206 126.085C80.5235 127.575 79.7801 128.865 78.786 129.958C77.7918 131.052 76.5737 131.888 75.1272 132.466C73.6808 133.044 72.0238 133.333 70.1609 133.333C68.3069 133.333 66.6454 133.036 65.1766 132.444C63.7077 131.848 62.4851 131.012 61.5044 129.927C60.5237 128.847 59.7803 127.544 59.2787 126.023C58.7771 124.502 58.5264 122.857 58.5264 121.092C58.5264 119.282 58.7861 117.623 59.3101 116.112C59.834 114.6 60.5908 113.315 61.585 112.256C62.5792 111.198 63.7838 110.384 65.2079 109.824C66.632 109.255 68.2486 108.975 70.0623 108.975ZM76.8917 121.092C76.8917 119.366 76.6095 117.872 76.0498 116.61C75.49 115.347 74.6884 114.391 73.6449 113.741C72.606 113.092 71.4103 112.768 70.0623 112.768C69.104 112.768 68.2128 112.945 67.4023 113.306C66.5872 113.666 65.8886 114.186 65.2975 114.871C64.7108 115.556 64.2451 116.432 63.9047 117.499C63.5644 118.566 63.3942 119.762 63.3942 121.092C63.3942 122.43 63.5644 123.64 63.9047 124.725C64.2451 125.805 64.7243 126.703 65.3467 127.415C65.9647 128.126 66.6768 128.66 67.4829 129.016C68.2845 129.367 69.1667 129.545 70.1295 129.545C71.361 129.545 72.4895 129.238 73.5195 128.629C74.5495 128.02 75.3691 127.077 75.9781 125.801C76.5827 124.525 76.8917 122.955 76.8917 121.092Z" fill="white"/>
<path d="M103.895 125.864C103.895 127.286 103.524 128.567 102.789 129.705C102.05 130.839 100.967 131.729 99.5426 132.373C98.1185 133.018 96.4302 133.338 94.4777 133.338C92.1355 133.338 90.2054 132.898 88.6828 132.022C87.6036 131.391 86.7258 130.546 86.0541 129.492C85.3779 128.438 85.042 127.411 85.042 126.415C85.042 125.837 85.2435 125.339 85.6466 124.93C86.0496 124.516 86.5646 124.312 87.1916 124.312C87.6976 124.312 88.1275 124.472 88.4768 124.792C88.8261 125.112 89.1262 125.588 89.3725 126.224C89.6725 126.975 89.9994 127.602 90.3532 128.105C90.7025 128.607 91.1951 129.025 91.8355 129.35C92.4714 129.679 93.3088 129.839 94.3433 129.839C95.7674 129.839 96.9228 129.51 97.814 128.852C98.7051 128.194 99.1485 127.371 99.1485 126.384C99.1485 125.601 98.9066 124.965 98.4275 124.481C97.9483 123.991 97.3258 123.622 96.569 123.364C95.8077 123.107 94.7911 122.835 93.5193 122.546C91.8131 122.151 90.389 121.688 89.2381 121.154C88.0917 120.625 87.1781 119.901 86.5019 118.985C85.8257 118.068 85.4898 116.93 85.4898 115.569C85.4898 114.275 85.8436 113.124 86.5556 112.114C87.2677 111.109 88.2977 110.336 89.6456 109.793C90.9936 109.251 92.5789 108.979 94.4015 108.979C95.857 108.979 97.1154 109.157 98.1812 109.518C99.2425 109.878 100.125 110.354 100.828 110.949C101.531 111.545 102.041 112.168 102.364 112.821C102.686 113.475 102.848 114.111 102.848 114.733C102.848 115.303 102.646 115.814 102.238 116.268C101.835 116.721 101.329 116.952 100.725 116.952C100.174 116.952 99.7575 116.815 99.4709 116.543C99.1843 116.268 98.8753 115.823 98.5394 115.2C98.1095 114.311 97.5901 113.617 96.9855 113.119C96.3809 112.621 95.4091 112.372 94.0746 112.372C92.8342 112.372 91.8355 112.644 91.0742 113.182C90.3129 113.724 89.9322 114.373 89.9322 115.134C89.9322 115.605 90.0621 116.014 90.3219 116.357C90.5816 116.699 90.9354 116.992 91.3877 117.241C91.84 117.486 92.3012 117.682 92.7625 117.819C93.2282 117.957 93.994 118.162 95.0598 118.429C96.3988 118.74 97.608 119.082 98.6917 119.456C99.7754 119.829 100.698 120.287 101.459 120.821C102.221 121.359 102.812 122.035 103.237 122.853C103.685 123.671 103.895 124.672 103.895 125.864Z" fill="white"/>
<path d="M126 125.864C126 127.286 125.628 128.567 124.894 129.705C124.155 130.839 123.071 131.729 121.647 132.373C120.223 133.018 118.535 133.338 116.582 133.338C114.24 133.338 112.31 132.898 110.787 132.022C109.708 131.391 108.83 130.546 108.159 129.492C107.482 128.438 107.146 127.411 107.146 126.415C107.146 125.837 107.348 125.339 107.751 124.93C108.154 124.516 108.669 124.312 109.296 124.312C109.802 124.312 110.232 124.472 110.581 124.792C110.931 125.112 111.231 125.588 111.477 126.224C111.777 126.975 112.104 127.602 112.458 128.105C112.807 128.607 113.3 129.025 113.94 129.35C114.576 129.679 115.413 129.839 116.448 129.839C117.872 129.839 119.027 129.51 119.918 128.852C120.81 128.194 121.253 127.371 121.253 126.384C121.253 125.601 121.011 124.965 120.532 124.481C120.053 123.991 119.43 123.622 118.674 123.364C117.912 123.107 116.896 122.835 115.624 122.546C113.918 122.151 112.494 121.688 111.343 121.154C110.196 120.625 109.283 119.901 108.606 118.985C107.93 118.068 107.594 116.93 107.594 115.569C107.594 114.275 107.948 113.124 108.66 112.114C109.372 111.109 110.402 110.336 111.75 109.793C113.098 109.251 114.683 108.979 116.506 108.979C117.961 108.979 119.22 109.157 120.286 109.518C121.347 109.878 122.229 110.354 122.932 110.949C123.635 111.545 124.146 112.168 124.468 112.821C124.791 113.475 124.952 114.111 124.952 114.733C124.952 115.303 124.75 115.814 124.343 116.268C123.94 116.721 123.434 116.952 122.829 116.952C122.278 116.952 121.862 116.815 121.575 116.543C121.289 116.268 120.98 115.823 120.644 115.2C120.214 114.311 119.695 113.617 119.09 113.119C118.485 112.621 117.514 112.372 116.179 112.372C114.939 112.372 113.94 112.644 113.179 113.182C112.417 113.724 112.037 114.373 112.037 115.134C112.037 115.605 112.167 116.014 112.426 116.357C112.686 116.699 113.04 116.992 113.492 117.241C113.944 117.486 114.406 117.682 114.867 117.819C115.333 117.957 116.099 118.162 117.164 118.429C118.503 118.74 119.712 119.082 120.796 119.456C121.88 119.829 122.802 120.287 123.564 120.821C124.325 121.359 124.916 122.035 125.342 122.853C125.785 123.671 126 124.672 126 125.864Z" fill="white"/>
<path d="M27.0262 120.242C26.3814 120.242 25.8529 120.464 25.4499 120.9C25.0424 121.34 24.8408 121.994 24.8408 122.861V130.665C24.8408 131.523 25.0424 132.181 25.4499 132.644C25.8529 133.102 26.3814 133.333 27.0262 133.333C27.6756 133.333 28.2085 133.106 28.6294 132.657C29.0504 132.208 29.2609 131.545 29.2609 130.665V122.732C29.2609 121.954 29.0504 121.34 28.6294 120.9C28.2085 120.464 27.6756 120.242 27.0262 120.242ZM17.5547 108.974C16.8427 108.974 16.2695 109.214 15.8306 109.699C15.3917 110.184 15.1768 110.904 15.1768 111.869V118.615H4.80516V111.865C4.80516 110.891 4.58125 110.166 4.13342 109.686C3.6856 109.21 3.09895 108.97 2.37795 108.97C1.64352 108.97 1.06582 109.21 0.64039 109.695C0.214956 110.179 0 110.904 0 111.869V130.425C0 131.39 0.214956 132.115 0.649346 132.604C1.07926 133.093 1.65695 133.333 2.38243 133.333C3.09447 133.333 3.67664 133.093 4.12894 132.608C4.58125 132.124 4.80964 131.399 4.80964 130.425V122.505H15.1813V130.425C15.1813 131.39 15.3962 132.115 15.8306 132.604C16.2605 133.093 16.8382 133.333 17.5637 133.333C18.2757 133.333 18.8579 133.093 19.3102 132.608C19.7625 132.124 19.9909 131.399 19.9909 130.425V111.869C19.9909 110.895 19.767 110.17 19.3192 109.69C18.8624 109.214 18.2802 108.974 17.5547 108.974ZM30.1162 113.305H28.2801V111.438C28.2801 110.762 27.7293 110.215 27.0486 110.215C26.3634 110.215 25.8126 110.762 25.8126 111.438V113.305H23.9765C23.2958 113.305 22.7405 113.852 22.7405 114.528C22.7405 115.204 23.2958 115.755 23.9765 115.755H25.8126V117.53C25.8126 118.205 26.3634 118.757 27.0486 118.757C27.7293 118.757 28.2801 118.205 28.2801 117.53V115.755H30.1162C30.7969 115.755 31.3522 115.204 31.3522 114.528C31.3522 113.852 30.7969 113.305 30.1162 113.305Z" fill="white"/>
</g>
<defs>
<clipPath id="clip0_11961_45352">
<rect width="126" height="133" fill="white"/>
</clipPath>
</defs>
</svg>
