<svg width="40" height="40" viewBox="0 0 40 40" fill="none" xmlns="http://www.w3.org/2000/svg">
<g id="Icon ">
<g id="Vector">
<path d="M4.72128 9.13823C4.20518 8.70148 3.42351 8.79547 3.06321 9.3675C1.12262 12.4485 0 16.0963 0 20.0061C0 31.0484 8.95431 40 20 40C25.1012 40 29.7564 38.0908 33.2895 34.9481C33.7949 34.4985 33.7589 33.7118 33.2426 33.2748C32.7842 32.8869 32.1081 32.9162 31.6564 33.312C28.5434 36.0396 24.4648 37.693 20 37.693C10.2288 37.693 2.30769 29.7743 2.30769 20.0061C2.30769 16.5956 3.27329 13.4106 4.94608 10.7093C5.26242 10.1985 5.17997 9.52641 4.72128 9.13823Z" fill="white"/>
<path d="M35.2403 30.9353C34.7803 30.546 34.699 29.8715 35.0181 29.3605C36.7129 26.6469 37.6923 23.4409 37.6923 20.0061C37.6923 10.2379 29.7712 2.31926 20 2.31926C15.5108 2.31926 11.4121 3.99072 8.29267 6.74508C7.84131 7.14361 7.16295 7.17441 6.70332 6.78544C6.18834 6.34963 6.15107 5.56548 6.65343 5.11519C10.1934 1.94218 14.8712 0.0122756 20 0.0122756C31.0457 0.0122756 40 8.96383 40 20.0061C40 23.9434 38.8616 27.6148 36.8959 30.7095C36.5344 31.2786 35.755 31.3709 35.2403 30.9353Z" fill="white"/>
<path d="M32.7112 33.4929C33.3077 33.717 33.6095 34.3821 33.3853 34.9785L32.1053 39.2194C31.881 39.8158 31.2157 40.1175 30.6192 39.8933C30.0227 39.6692 29.7209 39.004 29.9451 38.4077L31.2252 34.1667C31.4494 33.5704 32.1147 33.2687 32.7112 33.4929Z" fill="white"/>
<path d="M9.47368 0.0557062C10.0803 0.250756 10.4139 0.900509 10.2188 1.50697L8.55511 6.17174C8.36 6.7782 7.71005 7.11172 7.1034 6.91667C6.49676 6.72162 6.16314 6.07187 6.35825 5.4654L8.02197 0.800634C8.21708 0.194172 8.86704 -0.139343 9.47368 0.0557062Z" fill="white"/>
</g>
</g>
</svg>
