<svg width="122" height="33" viewBox="0 0 122 33" fill="none" xmlns="http://www.w3.org/2000/svg">
<g id="Frame" clip-path="url(#clip0_11923_44233)">
<g id="Group">
<path id="Vector" d="M8.1301 8.33298C8.23623 8.42749 27.0111 27.1842 27.0111 27.1842C27.0111 27.1842 28.8776 21.9355 26.0053 18.5331C25.8714 18.3602 24.4549 16.6245 21.2342 15.873C21.4027 15.8177 26.9488 14.6329 26.7435 8.25922C26.7689 7.87657 26.4436 0.262783 17.506 0C17.2199 0.0230511 0.108432 0 0.108432 0L4.52877 4.42121C4.52877 4.42121 5.43084 5.4078 4.48032 6.45432C4.3742 6.55574 3.4606 7.43399 2.3832 6.55113C2.27477 6.4474 0 4.17456 0 4.17456V9.8751L22.2863 32.1425C22.2863 32.1425 24.5587 31.421 25.5 29.9596C25.3316 29.7913 6.22908 10.7049 6.22908 10.7049C6.22908 10.7049 5.02018 9.66764 6.10681 8.44132C6.18755 8.33298 7.10346 7.54003 8.1301 8.33298ZM15.695 6.86463H17.1646V5.45851C17.1646 4.80847 17.6929 4.28059 18.3435 4.28059C18.9941 4.28059 19.5224 4.80847 19.5224 5.45851V6.86463H20.992C21.6426 6.86463 22.1709 7.3925 22.1709 8.04254C22.1709 8.69258 21.6426 9.21815 20.992 9.21815H19.5224V10.6243C19.5224 11.2743 18.9941 11.8022 18.3435 11.8022C17.6929 11.8022 17.1646 11.2743 17.1646 10.6243V9.21815H15.695C15.0444 9.21815 14.5184 8.69028 14.5184 8.04254C14.5184 7.3925 15.0444 6.86463 15.695 6.86463Z" fill="#2D589F"/>
<path id="Vector_2" d="M8.04013 24.2908C8.23161 24.1548 9.07139 23.0875 8.0632 22.0456C7.94785 21.9327 0 13.9893 0 13.9893V18.2722L6.02375 24.2885C6.02375 24.2885 6.97196 25.1506 8.04013 24.2908Z" fill="#2D589F"/>
<path id="Vector_3" d="M9.73362 25.6993C9.6621 25.7454 8.40937 26.8933 9.96894 28.2326L14.74 32.9996H19.0265L11.7131 25.6993C11.7131 25.6993 10.7764 24.851 9.73362 25.6993Z" fill="#2D589F"/>
<path id="Vector_4" d="M0 33.0001H10.6217L0 22.3896V33.0001Z" fill="#2D589F"/>
</g>
<g id="Group_2">
<path id="Vector_5" d="M66.748 29.289H61.7463C61.0242 29.289 60.5097 29.1276 60.2005 28.8049C59.8914 28.4822 59.7368 27.9659 59.7368 27.2605V14.9673C59.7368 14.2458 59.896 13.7272 60.2121 13.4114C60.5281 13.0956 61.0403 12.9365 61.7463 12.9365H67.0502C67.8323 12.9365 68.5083 12.9849 69.0827 13.0817C69.6549 13.1786 70.1694 13.3653 70.6239 13.6396C71.0115 13.8701 71.3529 14.1628 71.6505 14.5155C71.9481 14.8682 72.1742 15.2601 72.3311 15.6865C72.488 16.1153 72.5664 16.5671 72.5664 17.0419C72.5664 18.6786 71.7474 19.8749 70.1094 20.6333C72.2596 21.3179 73.337 22.648 73.337 24.6258C73.337 25.5409 73.1017 26.3638 72.6333 27.0968C72.165 27.8299 71.5305 28.3693 70.7346 28.7196C70.2363 28.9271 69.6618 29.0746 69.0158 29.1599C68.3676 29.2475 67.6108 29.289 66.748 29.289ZM63.0521 15.4237V19.6513H66.0882C66.9141 19.6513 67.5532 19.5729 68.003 19.4162C68.4529 19.2594 68.7967 18.9621 69.0366 18.5241C69.2235 18.2129 69.3158 17.8626 69.3158 17.4753C69.3158 16.6501 69.0205 16.1014 68.4345 15.8294C67.8462 15.5574 66.9487 15.4214 65.7444 15.4214H63.0521V15.4237ZM66.5011 22.0279H63.0521V26.8018H66.6142C68.8543 26.8018 69.9756 25.995 69.9756 24.3814C69.9756 23.5562 69.6849 22.9569 69.1058 22.5857C68.5267 22.2146 67.6547 22.0279 66.5011 22.0279Z" fill="#2D589F"/>
<path id="Vector_6" d="M83.4051 12.6572C85.1031 12.6572 86.5588 13.0007 87.777 13.6899C88.9928 14.3768 89.9156 15.3565 90.5408 16.6243C91.166 17.8921 91.4798 19.3812 91.4798 21.0916C91.4798 22.3548 91.3091 23.5051 90.9653 24.5378C90.6239 25.5705 90.1094 26.4672 89.4242 27.2255C88.739 27.9839 87.8992 28.5648 86.9003 28.9659C85.9013 29.367 84.7593 29.5675 83.472 29.5675C82.1916 29.5675 81.0449 29.3601 80.0344 28.9475C79.0216 28.5348 78.1773 27.954 77.5013 27.2025C76.823 26.451 76.3131 25.5474 75.9671 24.4917C75.621 23.4359 75.448 22.2949 75.448 21.0663C75.448 19.81 75.628 18.6574 75.9902 17.6086C76.3501 16.5598 76.8738 15.6677 77.559 14.9324C78.2442 14.197 79.077 13.6323 80.0598 13.2427C81.038 12.8532 82.1546 12.6572 83.4051 12.6572ZM88.1161 21.0686C88.1161 19.8722 87.9223 18.8349 87.5347 17.9567C87.1471 17.0784 86.5957 16.4146 85.8759 15.9651C85.1584 15.5156 84.3325 15.2897 83.4028 15.2897C82.7406 15.2897 82.127 15.4141 81.5663 15.6631C81.0034 15.912 80.5212 16.2739 80.1152 16.7511C79.7092 17.226 79.3885 17.8345 79.1555 18.5745C78.9201 19.3144 78.8048 20.1465 78.8048 21.0686C78.8048 21.9975 78.9224 22.8389 79.1555 23.5904C79.3908 24.3418 79.7207 24.9642 80.1498 25.4598C80.5789 25.9554 81.068 26.3242 81.624 26.5686C82.1777 26.8129 82.7868 26.9374 83.4489 26.9374C84.2979 26.9374 85.0777 26.7253 85.7883 26.3012C86.4989 25.877 87.0641 25.2224 87.4863 24.3372C87.9062 23.4521 88.1161 22.3618 88.1161 21.0686Z" fill="#2D589F"/>
<path id="Vector_7" d="M106.748 24.3807C106.748 25.3696 106.492 26.2593 105.984 27.0477C105.474 27.836 104.729 28.4538 103.746 28.8987C102.764 29.3459 101.599 29.5672 100.251 29.5672C98.6363 29.5672 97.3029 29.2629 96.2555 28.6521C95.5103 28.2141 94.9058 27.6286 94.4421 26.8956C93.9761 26.1625 93.7454 25.4503 93.7454 24.7587C93.7454 24.3576 93.8861 24.0142 94.1629 23.726C94.4421 23.4402 94.7974 23.2973 95.2288 23.2973C95.5795 23.2973 95.8748 23.4079 96.117 23.6315C96.3593 23.8551 96.5646 24.1847 96.7376 24.625C96.9453 25.146 97.1714 25.5816 97.4136 25.9297C97.6558 26.2801 97.995 26.5682 98.4356 26.7941C98.874 27.02 99.4507 27.1353 100.166 27.1353C101.149 27.1353 101.947 26.9071 102.561 26.4484C103.174 25.992 103.481 25.4203 103.481 24.7357C103.481 24.194 103.315 23.7514 102.985 23.4148C102.653 23.076 102.226 22.8178 101.702 22.6403C101.179 22.4628 100.475 22.2715 99.5984 22.071C98.4218 21.7966 97.439 21.4739 96.6453 21.1051C95.8517 20.7363 95.2242 20.2361 94.7582 19.5999C94.2921 18.9637 94.0614 18.173 94.0614 17.2302C94.0614 16.3312 94.306 15.5314 94.7974 14.8329C95.2888 14.1345 95.9994 13.5974 96.9291 13.2216C97.8589 12.8459 98.9524 12.6592 100.212 12.6592C101.218 12.6592 102.085 12.7837 102.819 13.0326C103.553 13.2816 104.159 13.6135 104.644 14.0261C105.128 14.4387 105.481 14.8721 105.705 15.3262C105.929 15.7803 106.04 16.2229 106.04 16.6539C106.04 17.0481 105.901 17.4031 105.622 17.7189C105.343 18.0347 104.995 18.1938 104.579 18.1938C104.199 18.1938 103.91 18.0992 103.714 17.9102C103.516 17.7212 103.304 17.41 103.073 16.979C102.775 16.3612 102.418 15.8794 102 15.5337C101.582 15.1879 100.913 15.015 99.9906 15.015C99.1347 15.015 98.4449 15.2017 97.9188 15.5775C97.3951 15.9532 97.1321 16.405 97.1321 16.9329C97.1321 17.2602 97.2221 17.5437 97.3998 17.7811C97.5774 18.0186 97.8243 18.2237 98.1357 18.3943C98.4472 18.5649 98.7655 18.6986 99.0839 18.7954C99.4046 18.8922 99.9329 19.0328 100.669 19.2195C101.592 19.4362 102.427 19.6736 103.174 19.9341C103.922 20.1946 104.559 20.5104 105.082 20.8815C105.606 21.2526 106.017 21.7229 106.31 22.2922C106.603 22.857 106.748 23.5554 106.748 24.3807Z" fill="#2D589F"/>
<path id="Vector_8" d="M122 24.3807C122 25.3696 121.744 26.2593 121.236 27.0477C120.726 27.836 119.981 28.4538 118.998 28.8987C118.016 29.3459 116.851 29.5672 115.503 29.5672C113.888 29.5672 112.555 29.2629 111.507 28.6521C110.762 28.2141 110.158 27.6286 109.694 26.8956C109.228 26.1625 108.997 25.4503 108.997 24.7587C108.997 24.3576 109.138 24.0142 109.415 23.726C109.694 23.4402 110.049 23.2973 110.481 23.2973C110.831 23.2973 111.127 23.4079 111.369 23.6315C111.611 23.8551 111.817 24.1847 111.99 24.625C112.197 25.146 112.423 25.5816 112.666 25.9297C112.908 26.2801 113.247 26.5682 113.688 26.7941C114.126 27.02 114.703 27.1353 115.418 27.1353C116.401 27.1353 117.199 26.9071 117.813 26.4484C118.426 25.992 118.733 25.4203 118.733 24.7357C118.733 24.194 118.567 23.7514 118.237 23.4148C117.905 23.076 117.478 22.8178 116.954 22.6403C116.431 22.4628 115.727 22.2715 114.85 22.071C113.674 21.7966 112.691 21.4739 111.897 21.1051C111.104 20.7363 110.476 20.2361 110.01 19.5999C109.544 18.9637 109.313 18.173 109.313 17.2302C109.313 16.3312 109.558 15.5314 110.049 14.8329C110.541 14.1345 111.251 13.5974 112.181 13.2216C113.111 12.8459 114.204 12.6592 115.464 12.6592C116.47 12.6592 117.337 12.7837 118.071 13.0326C118.805 13.2816 119.411 13.6135 119.896 14.0261C120.38 14.4387 120.733 14.8721 120.957 15.3262C121.181 15.7803 121.292 16.2229 121.292 16.6539C121.292 17.0481 121.153 17.4031 120.874 17.7189C120.595 18.0347 120.247 18.1938 119.831 18.1938C119.451 18.1938 119.162 18.0992 118.966 17.9102C118.768 17.7212 118.555 17.41 118.325 16.979C118.027 16.3612 117.67 15.8794 117.252 15.5337C116.834 15.1879 116.165 15.015 115.243 15.015C114.387 15.015 113.697 15.2017 113.171 15.5775C112.647 15.9532 112.384 16.405 112.384 16.9329C112.384 17.2602 112.474 17.5437 112.652 17.7811C112.829 18.0186 113.076 18.2237 113.388 18.3943C113.699 18.5649 114.017 18.6986 114.336 18.7954C114.657 18.8922 115.185 19.0328 115.921 19.2195C116.844 19.4362 117.679 19.6736 118.426 19.9341C119.174 20.1946 119.811 20.5104 120.334 20.8815C120.858 21.2526 121.269 21.7229 121.562 22.2922C121.852 22.857 122 23.5554 122 24.3807Z" fill="#2D589F"/>
</g>
<g id="Group_3">
<g id="Group_4">
<path id="Vector_9" d="M53.7108 20.4785C53.2655 20.4785 52.901 20.6329 52.6242 20.9349C52.3427 21.2415 52.2043 21.6933 52.2043 22.2972V27.7142C52.2043 28.3089 52.3427 28.7677 52.6242 29.0881C52.9033 29.4062 53.2678 29.5675 53.7108 29.5675C54.1584 29.5675 54.5275 29.4108 54.8159 29.0973C55.1066 28.7861 55.2519 28.3251 55.2519 27.7142V22.2073C55.2519 21.6679 55.1066 21.2415 54.8159 20.9349C54.5275 20.6329 54.1607 20.4785 53.7108 20.4785ZM47.1795 12.6572C46.6881 12.6572 46.2913 12.8255 45.9913 13.1597C45.6891 13.494 45.5392 13.9965 45.5392 14.665V19.349H38.3826V14.665C38.3826 13.9896 38.2281 13.4848 37.9189 13.1528C37.6098 12.8209 37.206 12.6572 36.7077 12.6572C36.2025 12.6572 35.801 12.8255 35.508 13.1597C35.215 13.494 35.0674 13.9965 35.0674 14.665V27.5483C35.0674 28.2167 35.215 28.7216 35.515 29.0604C35.8126 29.3993 36.2117 29.5675 36.71 29.5675C37.2014 29.5675 37.6029 29.3993 37.9166 29.065C38.2281 28.7308 38.3849 28.2237 38.3849 27.5483V22.0483H45.5415V27.5483C45.5415 28.2167 45.6891 28.7216 45.989 29.0604C46.2866 29.3993 46.6858 29.5675 47.1841 29.5675C47.6755 29.5675 48.0769 29.3993 48.3907 29.065C48.7045 28.7308 48.859 28.2237 48.859 27.5483V14.665C48.859 13.9896 48.7045 13.4848 48.3953 13.1528C48.0815 12.8232 47.6778 12.6572 47.1795 12.6572ZM55.8448 15.6631H54.5783V14.3653C54.5783 13.8951 54.1976 13.517 53.7292 13.517C53.2563 13.517 52.8756 13.8974 52.8756 14.3653V15.6631H51.6091C51.1384 15.6631 50.7554 16.0434 50.7554 16.5114C50.7554 16.9816 51.1384 17.3643 51.6091 17.3643H52.8756V18.5975C52.8756 19.0677 53.2563 19.4504 53.7292 19.4504C54.1999 19.4504 54.5783 19.0677 54.5783 18.5975V17.3643H55.8448C56.3155 17.3643 56.6984 16.9816 56.6984 16.5114C56.6984 16.0411 56.3155 15.6631 55.8448 15.6631Z" fill="#2D589F"/>
</g>
</g>
</g>
<defs>
<clipPath id="clip0_11923_44233">
<rect width="122" height="33" fill="white"/>
</clipPath>
</defs>
</svg>
