<svg width="24" height="24" viewBox="0 0 24 24" fill="none" xmlns="http://www.w3.org/2000/svg">
<g id="online-video 1">
<g id="Layer_18">
<path id="Vector" d="M4.6492 18.3177H19.3507C21.0457 18.3177 22.4249 16.9385 22.4249 15.2427V5.05547C22.4249 3.35972 21.0457 1.98047 19.3507 1.98047H4.6492C2.9542 1.98047 1.57495 3.35972 1.57495 5.05547V15.2427C1.57495 16.9385 2.9542 18.3177 4.6492 18.3177ZM2.92495 5.05547C2.92495 4.10447 3.69895 3.33122 4.6492 3.33122H19.3507C20.3017 3.33122 21.0749 4.10447 21.0749 5.05547V15.2427C21.0749 16.1937 20.3009 16.967 19.3507 16.967H4.6492C3.6982 16.967 2.92495 16.1937 2.92495 15.2427V5.05547Z" fill="#636366"/>
<path id="Vector_2" d="M10.0253 13.9254C10.3358 14.0859 10.6718 14.1654 11.0071 14.1654C11.4391 14.1654 11.8681 14.0334 12.2363 13.7739L14.9011 11.8899C15.4658 11.4909 15.8026 10.8399 15.8026 10.1484C15.8026 9.45766 15.4651 8.80666 14.9011 8.40841L12.2356 6.52516C11.5816 6.06316 10.7348 6.00466 10.0246 6.37366C9.31431 6.74116 8.87256 7.46716 8.87256 8.26666V12.0324C8.87331 12.8319 9.31431 13.5579 10.0253 13.9254ZM10.2233 8.26666C10.2233 7.96891 10.3808 7.70941 10.6456 7.57216C10.7611 7.51216 10.8848 7.48216 11.0071 7.48216C11.1638 7.48216 11.3198 7.53091 11.4563 7.62766L14.1211 9.51091C14.3311 9.65866 14.4511 9.89191 14.4511 10.1492C14.4511 10.4064 14.3303 10.6389 14.1203 10.7882L11.4556 12.6714C11.2126 12.8432 10.9103 12.8642 10.6448 12.7269C10.3801 12.5897 10.2226 12.3309 10.2226 12.0324L10.2233 8.26666Z" fill="#636366"/>
<path id="Vector_3" d="M22.4999 20.668H1.49995C1.1272 20.668 0.824951 20.9702 0.824951 21.343C0.824951 21.7157 1.1272 22.018 1.49995 22.018H22.4999C22.8727 22.018 23.1749 21.7157 23.1749 21.343C23.1749 20.9702 22.8727 20.668 22.4999 20.668Z" fill="#636366"/>
</g>
</g>
</svg>
