<svg width="24" height="24" viewBox="0 0 24 24" fill="none" xmlns="http://www.w3.org/2000/svg">
<g id="Paper Plus">
<g id="Iconly/Light-Outline/Paper-Plus">
<g id="Paper-Plus">
<path id="Combined-Shape" fill-rule="evenodd" clip-rule="evenodd" d="M13.9745 2C14.0175 2 14.0596 2.00362 14.1005 2.01056L14.2369 2.0113C14.4409 2.0113 14.6359 2.0943 14.7779 2.2413L19.8439 7.5203C19.9769 7.6593 20.0519 7.8463 20.0519 8.0393V17.3393C20.0559 19.8083 18.0499 21.8393 15.5809 21.8653L7.3999 21.8663C4.9269 21.8233 2.9589 19.7863 3.0009 17.3263V6.4903C3.0579 4.0093 5.1069 2.0113 7.5699 2.0113L13.8485 2.01056C13.8894 2.00362 13.9316 2 13.9745 2ZM13.2242 3.511L7.5729 3.5113C5.9149 3.5113 4.5399 4.8533 4.5009 6.5083V17.3393C4.4719 18.9863 5.7789 20.3383 7.4139 20.3663L7.5609 20.3653H15.5729C17.2149 20.3473 18.5539 18.9903 18.5519 17.3403L18.5512 8.983L16.5435 8.984C14.7125 8.979 13.2245 7.487 13.2245 5.659L13.2242 3.511ZM11.3444 9.7139C11.7584 9.7139 12.0944 10.0499 12.0944 10.4639L12.0942 12.163L13.7936 12.1637C14.2076 12.1637 14.5436 12.4997 14.5436 12.9137C14.5436 13.3277 14.2076 13.6637 13.7936 13.6637L12.0942 13.663L12.0944 15.3639C12.0944 15.7779 11.7584 16.1139 11.3444 16.1139C10.9304 16.1139 10.5944 15.7779 10.5944 15.3639L10.5942 13.663L8.8946 13.6637C8.4806 13.6637 8.1446 13.3277 8.1446 12.9137C8.1446 12.4997 8.4806 12.1637 8.8946 12.1637L10.5942 12.163L10.5944 10.4639C10.5944 10.0499 10.9304 9.7139 11.3444 9.7139ZM14.7242 4.352L14.7245 5.659C14.7245 6.663 15.5415 7.481 16.5455 7.484L17.7282 7.483L14.7242 4.352Z" fill="#636366"/>
</g>
</g>
</g>
</svg>
