<svg width="67" height="53" viewBox="0 0 67 53" fill="none" xmlns="http://www.w3.org/2000/svg">
<path fill-rule="evenodd" clip-rule="evenodd" d="M30.6771 39.5866C30.7731 37.8286 30.3186 36.1846 29.7141 34.5586C28.8471 32.2231 27.9576 29.8921 27.4836 27.4306C27.3351 26.6566 27.3231 25.8796 27.3846 25.1071C27.4416 24.3781 27.7401 23.7271 28.5066 23.4976C29.2701 23.2666 29.7381 23.7886 30.1371 24.3196C30.9816 25.4491 31.4826 26.7571 31.8981 28.0816C32.7396 30.7756 33.5406 33.4876 33.7701 36.3166C33.8346 37.1116 34.1571 37.3096 34.8681 37.1086C36.3561 36.6901 37.8711 36.6556 39.3666 36.9886C43.0446 37.7986 45.0351 40.9531 44.4771 45.0136C43.9416 48.9076 41.3406 51.3316 37.1316 51.9001C35.4966 52.1221 33.8736 52.0906 32.2446 51.8656C30.3786 51.6091 28.8306 51.0481 27.6516 49.3051C26.1906 47.1436 24.2601 45.3211 22.1631 43.7206C21.9036 43.5241 21.6516 43.3036 21.4386 43.0606C20.8656 42.4126 20.2086 41.7271 20.6646 40.7851C21.1671 39.7546 22.1841 39.5821 23.1951 39.6901C24.7866 39.8596 26.0166 40.7176 26.9736 41.9716C27.5181 42.6871 28.0206 43.4356 28.5516 44.1616C30.3066 46.5601 33.6321 47.6521 36.4716 46.7671C37.9971 46.2916 38.7591 45.3226 38.6961 43.9336C38.6361 42.5851 37.7496 41.7136 36.1326 41.4256C34.8906 41.2036 33.6876 41.4106 32.5056 41.7856C30.8796 42.3016 30.5106 42.0196 30.6126 40.3216C30.6261 40.0741 30.6546 39.8311 30.6771 39.5866Z" fill="#214393"/>
<path fill-rule="evenodd" clip-rule="evenodd" d="M46.4496 31.7115C46.0941 33.9405 45.0516 35.955 43.9356 37.9395C43.7496 38.2725 43.4796 38.2995 43.1556 38.142C42.7701 37.9545 42.3711 37.7295 42.5031 37.2405C43.0791 35.0775 43.6611 32.91 44.9811 31.047C45.2166 30.714 45.5391 30.3945 46.0086 30.594C46.4646 30.789 46.4211 31.242 46.4496 31.7115Z" fill="#214393"/>
<path fill-rule="evenodd" clip-rule="evenodd" d="M42.665 25.763C42.5105 25.193 42.179 24.7415 41.549 24.674C40.946 24.608 40.481 24.9005 40.148 25.394C39.914 25.7405 39.818 26.1245 39.785 26.5415C39.6665 27.9125 39.5465 29.282 39.425 30.6395C38.714 30.5675 38.0015 30.5615 37.289 30.5855C37.322 30.0755 37.355 29.5655 37.3865 29.0555C37.529 27.2735 37.4735 25.4975 37.304 23.72C37.1285 21.872 36.581 21.0395 35.5715 21.0965C34.286 21.167 33.7355 22.016 33.7595 23.8835C33.761 24.0125 33.7535 24.1445 33.764 24.275C34.067 27.821 34.3955 31.367 34.652 34.9175C34.7135 35.759 35.051 36.104 35.8445 36.0695C36.581 36.0365 37.0325 35.7845 37.0565 34.9055C37.0805 34.0565 37.127 33.2075 37.178 32.3585C37.8725 32.4485 38.609 32.5025 39.3005 32.4995C39.248 33.0935 39.185 33.6845 39.185 34.2695V35.486C39.185 35.855 39.257 36.131 39.6635 36.218C40.0715 36.3065 40.4705 36.398 40.7285 35.9555C40.913 35.642 41.0825 35.306 41.1785 34.958C41.8415 32.615 42.4655 30.2645 42.812 27.848C42.9125 27.1385 42.848 26.444 42.665 25.763Z" fill="#214393"/>
<path d="M53.4411 34.6865C53.4351 34.472 53.4305 34.2575 53.4245 34.043C53.417 33.827 53.393 33.605 53.378 33.386C53.354 32.9435 53.2865 32.507 53.2325 32.066C53.0945 31.19 52.9221 30.305 52.661 29.4365C52.5471 28.997 52.3866 28.5695 52.2426 28.136C52.1586 27.923 52.076 27.7085 51.9921 27.4955L51.8645 27.1745L51.7221 26.8595C50.2326 23.4815 47.708 20.4155 44.4651 18.269C43.6581 17.7275 42.8015 17.258 41.9195 16.8335C41.0361 16.4105 40.1135 16.07 39.1745 15.7775C38.234 15.488 37.2665 15.287 36.2915 15.134C35.3105 14.9915 34.3355 14.9285 33.3305 14.918C32.372 14.936 31.3596 15.0035 30.3891 15.1535C29.4156 15.3125 28.4496 15.521 27.5106 15.815C26.5746 16.1135 25.6536 16.46 24.7731 16.8875C23.8956 17.318 23.0406 17.7935 22.2365 18.3395C19.007 20.5055 16.502 23.5865 15.0335 26.975L14.8925 27.2915L14.768 27.614C14.6855 27.8285 14.603 28.043 14.522 28.256C14.381 28.691 14.2235 29.12 14.111 29.5595C13.856 30.4295 13.6895 31.3145 13.5575 32.192C13.505 32.633 13.442 33.071 13.421 33.509C13.4075 33.728 13.3865 33.9455 13.379 34.1645C13.3745 34.382 13.37 34.5995 13.367 34.817L13.3625 35.1485L13.373 35.468C13.379 35.681 13.3865 35.8925 13.3925 36.104C13.4285 36.5315 13.451 36.962 13.5065 37.3805C13.7135 39.0575 14.105 40.667 14.681 42.149C15.2525 43.6325 15.977 44.996 16.802 46.217C17.2445 46.8695 17.717 47.471 18.206 48.038L18.7115 47.2175C18.3455 46.7135 17.996 46.1855 17.675 45.6275C16.9775 44.4155 16.3895 43.0835 15.956 41.663C15.5345 40.2395 15.308 38.7215 15.251 37.1765C15.233 36.788 15.251 36.431 15.2495 36.0485C15.26 35.837 15.2705 35.624 15.281 35.411L15.2975 35.09C15.2975 35.039 15.299 35.114 15.3005 35.093L15.305 35.057L15.3125 34.9835L15.329 34.8365C15.35 34.6415 15.371 34.445 15.392 34.2485C15.4145 34.0535 15.4535 33.8585 15.482 33.6635C15.5345 33.272 15.629 32.885 15.7085 32.4965C16.0685 30.9485 16.6475 29.438 17.408 28.0175C18.1595 26.5925 19.1285 25.2695 20.258 24.101C20.8265 23.519 21.422 22.964 22.055 22.451C22.688 21.938 23.369 21.4865 24.056 21.053C24.749 20.6255 25.481 20.264 26.2265 19.9385C26.969 19.607 27.7415 19.3415 28.5215 19.1165L29.1125 18.9635C29.309 18.914 29.5101 18.8795 29.7096 18.836L30.0065 18.7685L30.3081 18.7175C30.5091 18.686 30.7085 18.6425 30.911 18.617L31.517 18.5435C31.7255 18.5135 31.8921 18.515 32.0811 18.497L32.357 18.4745C32.3976 18.47 32.459 18.4685 32.5205 18.467L32.702 18.4625L33.4296 18.4475C33.281 18.4505 33.41 18.449 33.3876 18.4505L33.425 18.452L33.5016 18.455L33.6545 18.458L33.9606 18.4625C34.1646 18.4595 34.3685 18.476 34.5725 18.4895C34.9805 18.506 35.3856 18.5585 35.7891 18.6035C36.5946 18.7235 37.3925 18.881 38.1786 19.091C39.746 19.523 41.252 20.174 42.653 21.0005C42.8315 21.0995 42.9965 21.218 43.169 21.326C43.3415 21.434 43.511 21.5465 43.6745 21.6665C43.841 21.7835 44.0121 21.8945 44.1756 22.016L44.66 22.3865C45.2945 22.895 45.8976 23.4425 46.4631 24.026C47.5986 25.187 48.575 26.501 49.337 27.92C50.1005 29.336 50.693 30.839 51.062 32.384C51.1445 32.7695 51.2421 33.1655 51.2946 33.5285C51.3246 33.719 51.3636 33.887 51.3891 34.0955C51.4116 34.31 51.4356 34.5245 51.458 34.7375L51.4761 34.898L51.4851 34.9775L51.4895 35.018C51.4911 35.0405 51.4896 34.9625 51.4911 35.0135L51.509 35.306C51.521 35.501 51.5345 35.6975 51.5466 35.891C51.5495 36.2795 51.5676 36.671 51.5526 37.0565C51.5076 38.6015 51.2886 40.118 50.8806 41.546C50.4576 42.968 49.8786 44.303 49.1901 45.5195C48.8601 46.0985 48.5031 46.646 48.1266 47.168L48.6336 47.99C49.1361 47.405 49.622 46.7825 50.0735 46.106C50.8895 44.879 51.6065 43.511 52.169 42.0245C52.7346 40.538 53.1171 38.927 53.3135 37.2485C53.3675 36.8285 53.3856 36.4025 53.4186 35.9765C53.4276 35.5535 53.4606 35.126 53.4411 34.6865Z" fill="#214393"/>
<path d="M51.5992 21.7372L51.4027 21.7582L50.6182 21.3742L50.6572 21.1552L59.2792 12.2092L59.4922 12.1777L60.7597 14.0542L60.6697 14.5432L51.5992 21.7372Z" fill="#214393"/>
<path d="M54.5719 36.9268L54.4054 36.8203L54.0334 36.0283L54.2014 35.8828L66.5239 34.2988L66.7114 34.4068L66.5239 36.6643L66.1489 36.9913L54.5719 36.9268Z" fill="#214393"/>
<path d="M15.1505 21.7372L15.347 21.7582L16.133 21.3742L16.094 21.1552L7.47196 12.2092L7.25746 12.1777L5.99146 14.0542L6.07995 14.5432L15.1505 21.7372Z" fill="#214393"/>
<path d="M12.1791 36.9268L12.3456 36.8203L12.7161 36.0283L12.5496 35.8828L0.227051 34.2988L0.0395508 34.4068L0.227051 36.6643L0.602051 36.9913L12.1791 36.9268Z" fill="#214393"/>
<path d="M34.19 12.3663L34.073 12.5253L33.26 12.8463L33.125 12.6693L32.321 0.271798L32.441 0.0917969L34.682 0.420297L34.9835 0.816297L34.19 12.3663Z" fill="#214393"/>
</svg>
