<svg width="64" height="64" viewBox="0 0 64 64" fill="none" xmlns="http://www.w3.org/2000/svg">
<g id="product 1">
<path id="Vector" d="M58.2398 17.8991V46.0991C58.2398 46.4964 58.1313 46.8861 57.926 47.2263C57.7206 47.5664 57.4263 47.844 57.0748 48.0291L33.0198 60.7041C32.7058 60.8715 32.3555 60.9591 31.9998 60.9591C31.644 60.9591 31.2937 60.8715 30.9798 60.7041L6.92477 48.0291C6.57321 47.844 6.27888 47.5664 6.07357 47.2263C5.86825 46.8861 5.75975 46.4964 5.75977 46.0991V17.8991C5.75975 17.5018 5.86825 17.112 6.07357 16.7719C6.27888 16.4317 6.57321 16.1541 6.92477 15.9691L30.9798 3.29406C31.2937 3.12664 31.644 3.03906 31.9998 3.03906C32.3555 3.03906 32.7058 3.12664 33.0198 3.29406L40.6348 7.30406L48.2798 11.3341L57.0748 15.9691C57.4263 16.1541 57.7206 16.4317 57.926 16.7719C58.1313 17.112 58.2398 17.5018 58.2398 17.8991Z" fill="#5C8EFF"/>
<path id="Vector_2" d="M53.8496 54.6904C58.6937 54.6904 62.6206 50.7635 62.6206 45.9194C62.6206 41.0753 58.6937 37.1484 53.8496 37.1484C49.0055 37.1484 45.0786 41.0753 45.0786 45.9194C45.0786 50.7635 49.0055 54.6904 53.8496 54.6904Z" fill="#1FC9C9"/>
<path id="Vector_3" d="M53.4134 48.7263C53.0386 48.7269 52.6673 48.6536 52.3208 48.5105C51.9744 48.3673 51.6596 48.1573 51.3944 47.8923L50.3614 46.8588C50.2248 46.7174 50.1492 46.5279 50.1509 46.3313C50.1526 46.1346 50.2315 45.9465 50.3705 45.8075C50.5096 45.6684 50.6977 45.5895 50.8944 45.5878C51.091 45.5861 51.2805 45.6617 51.4219 45.7983L52.4549 46.8318C52.5797 46.9566 52.7278 47.0556 52.8908 47.1231C53.0538 47.1906 53.2285 47.2253 53.4049 47.2253C53.5813 47.2253 53.756 47.1906 53.919 47.1231C54.0821 47.0556 54.2302 46.9566 54.3549 46.8318L60.9049 40.9123C61.0533 40.7844 61.2459 40.7197 61.4414 40.7319C61.6369 40.7442 61.8199 40.8324 61.9512 40.9778C62.0825 41.1232 62.1517 41.3142 62.1439 41.51C62.1362 41.7057 62.0522 41.8907 61.9099 42.0253L55.3854 47.9183C55.1261 48.1762 54.8184 48.3804 54.48 48.519C54.1416 48.6577 53.7791 48.7281 53.4134 48.7263Z" fill="#F7ECDA"/>
<g id="Group">
<path id="Vector_4" d="M57.828 16.7901C57.7382 16.6127 57.5816 16.4782 57.3927 16.4163C57.2038 16.3543 56.9979 16.3699 56.8205 16.4596L32.65 28.6941C32.4484 28.7957 32.2258 28.8486 32 28.8486C31.7742 28.8486 31.5516 28.7957 31.35 28.6941L7.1645 16.4986C6.98688 16.409 6.78094 16.3937 6.59199 16.4559C6.40305 16.5182 6.24658 16.653 6.157 16.8306C6.06743 17.0082 6.05208 17.2142 6.11434 17.4031C6.17661 17.592 6.31138 17.7485 6.489 17.8381L30.675 30.0321C30.8586 30.1238 31.0513 30.1959 31.25 30.2471V60.1471C31.25 60.346 31.329 60.5368 31.4697 60.6774C31.6103 60.8181 31.8011 60.8971 32 60.8971C32.1989 60.8971 32.3897 60.8181 32.5303 60.6774C32.671 60.5368 32.75 60.346 32.75 60.1471V30.2486C32.9494 30.1974 33.1428 30.1251 33.327 30.0331L57.5 17.7986C57.6772 17.7083 57.8113 17.5514 57.8728 17.3623C57.9343 17.1731 57.9182 16.9673 57.828 16.7901Z" fill="#4856B5"/>
<path id="Vector_5" d="M48.2799 11.3347L23.0649 24.0997C22.704 24.2818 22.4007 24.5605 22.1889 24.9048C21.977 25.2491 21.8648 25.6454 21.8649 26.0497V37.3597C21.8646 37.578 21.7989 37.7912 21.6764 37.9719C21.5538 38.1526 21.3801 38.2926 21.1774 38.3737C20.9747 38.4549 20.7524 38.4736 20.539 38.4275C20.3257 38.3813 20.1309 38.2724 19.9799 38.1147L17.815 35.8547C17.6868 35.72 17.526 35.6207 17.3482 35.5664C17.1703 35.5121 16.9815 35.5046 16.7999 35.5447L15.3849 35.8497C15.2256 35.8835 15.0608 35.8813 14.9024 35.8432C14.744 35.8051 14.5962 35.7322 14.4697 35.6296C14.3432 35.527 14.2412 35.3975 14.1711 35.2504C14.1011 35.1034 14.0648 34.9426 14.0649 34.7797V22.0997C14.0639 21.6958 14.175 21.2996 14.3861 20.9553C14.5971 20.611 14.8996 20.3321 15.2599 20.1497L40.6349 7.30469L48.2799 11.3347Z" fill="#4856B5"/>
</g>
</g>
</svg>
