<svg width="24" height="24" viewBox="0 0 24 24" fill="none" xmlns="http://www.w3.org/2000/svg">
<g id="noto:glowing-star" clip-path="url(#clip0_13453_68893)">
<path id="Vector" d="M6.83634 6.90159L4.18509 5.20284C4.13164 5.17008 4.08631 5.12563 4.0525 5.07284C4.01869 5.02005 3.99729 4.96028 3.98989 4.89803C3.98249 4.83578 3.98929 4.77266 4.00979 4.71341C4.03028 4.65417 4.06393 4.60033 4.10822 4.55596L5.10384 3.56034C5.29509 3.36909 5.61759 3.41034 5.75447 3.64471L7.41197 6.33909C7.62947 6.71034 7.20384 7.12659 6.83634 6.90159ZM4.51884 15.0728L1.44009 15.1347C1.37749 15.1361 1.31601 15.1516 1.26027 15.1801C1.20453 15.2086 1.15597 15.2494 1.11826 15.2994C1.08055 15.3494 1.05465 15.4073 1.04252 15.4687C1.03039 15.5301 1.03234 15.5935 1.04822 15.6541L1.40634 17.0153C1.47572 17.2778 1.77384 17.4035 2.01009 17.2722L4.73072 15.8491C5.10572 15.6372 4.95009 15.0635 4.51884 15.0728ZM11.6701 20.3022L10.9951 23.3003C10.9332 23.561 11.1301 23.8122 11.3982 23.8122H12.8063C13.0782 23.8122 13.2751 23.5553 13.2076 23.2928L12.4745 20.2947C12.3657 19.8766 11.7713 19.8822 11.6701 20.3022ZM17.1638 6.90159L19.8151 5.20284C20.0438 5.06221 20.0813 4.74534 19.892 4.55596L18.8963 3.56034C18.8515 3.51564 18.7969 3.48182 18.737 3.46146C18.677 3.4411 18.6131 3.43475 18.5503 3.4429C18.4875 3.45105 18.4274 3.47347 18.3746 3.50845C18.3218 3.54343 18.2777 3.59005 18.2457 3.64471L16.5882 6.33909C16.3707 6.71034 16.7963 7.12659 17.1638 6.90159ZM19.4813 15.0728L22.5601 15.1347C22.6227 15.1361 22.6842 15.1516 22.7399 15.1801C22.7957 15.2086 22.8442 15.2494 22.8819 15.2994C22.9196 15.3494 22.9455 15.4073 22.9577 15.4687C22.9698 15.5301 22.9678 15.5935 22.952 15.6541L22.5938 17.0153C22.5776 17.0765 22.5477 17.1332 22.5062 17.181C22.4648 17.2288 22.413 17.2666 22.3548 17.2914C22.2965 17.3161 22.2334 17.3273 22.1702 17.324C22.107 17.3207 22.0454 17.303 21.9901 17.2722L19.2695 15.8491C18.8945 15.6372 19.0501 15.0635 19.4813 15.0728Z" fill="#FFC107"/>
<path id="Vector_2" d="M12.7593 1.35563L15.2831 7.11188C15.378 7.32851 15.5293 7.51569 15.7213 7.65388C15.9132 7.79207 16.1388 7.8762 16.3743 7.8975L22.5224 8.44875C23.2181 8.55 23.4956 9.40312 22.9912 9.89437L18.3599 13.785C17.9849 14.1 17.8143 14.595 17.9174 15.0731L19.2637 21.375C19.3818 22.0669 18.6562 22.5956 18.0337 22.2675L12.6674 19.125C12.465 19.0062 12.2346 18.9436 11.9999 18.9436C11.7653 18.9436 11.5348 19.0062 11.3324 19.125L5.96619 22.2656C5.34557 22.5919 4.61807 22.065 4.73619 21.3731L6.08244 15.0712C6.18369 14.5931 6.01494 14.0981 5.63994 13.7831L1.00682 9.89625C0.504316 9.40687 0.781816 8.55188 1.47557 8.45062L7.62369 7.89937C7.85925 7.87808 8.08477 7.79395 8.27672 7.65576C8.46867 7.51756 8.62001 7.33038 8.71494 7.11375L11.2387 1.3575C11.5518 0.7275 12.4481 0.7275 12.7593 1.35563Z" fill="#FDD835"/>
<path id="Vector_3" d="M12.5756 7.45672L12.1481 3.21547C12.1312 2.97922 12.0825 2.57422 12.4612 2.57422C12.7612 2.57422 12.9243 3.19859 12.9243 3.19859L14.2068 6.60359C14.6906 7.89922 14.4918 8.34359 14.025 8.60609C13.4887 8.90609 12.6975 8.67172 12.5756 7.45672Z" fill="#FFFF8D"/>
<path id="Vector_4" d="M17.8651 13.4079L21.5438 10.5373C21.7257 10.3854 22.0538 10.1435 21.7913 9.86789C21.5832 9.65039 21.0207 9.96351 21.0207 9.96351L17.8013 11.2216C16.8413 11.5535 16.2038 12.0448 16.1476 12.6635C16.0744 13.4885 16.8151 14.1241 17.8651 13.4079Z" fill="#F4B400"/>
</g>
<defs>
<clipPath id="clip0_13453_68893">
<rect width="24" height="24" fill="white"/>
</clipPath>
</defs>
</svg>
